<?xml version="1.0" encoding="UTF-8" standalone="no"?>
<!-- Created with Inkscape (http://www.inkscape.org/) -->

<svg
   xmlns:dc="http://purl.org/dc/elements/1.1/"
   xmlns:cc="http://creativecommons.org/ns#"
   xmlns:rdf="http://www.w3.org/1999/02/22-rdf-syntax-ns#"
   xmlns:svg="http://www.w3.org/2000/svg"
   xmlns="http://www.w3.org/2000/svg"
   xmlns:sodipodi="http://sodipodi.sourceforge.net/DTD/sodipodi-0.dtd"
   xmlns:inkscape="http://www.inkscape.org/namespaces/inkscape"
   width="1024"
   height="1024"
   viewBox="0 0 270.93333 270.93334"
   version="1.1"
   id="svg8"
   inkscape:version="0.92.2 (5c3e80d, 2017-08-06)"
   sodipodi:docname="calabacin.svg"
   inkscape:export-filename="/home/jesusda/Escritorio/medialab/visualizar/proyectos/se-cultivan-alla-se-consumen-aqui/ilustraciones/calabacin_final.png"
   inkscape:export-xdpi="96.000008"
   inkscape:export-ydpi="96.000008">
  <defs
     id="defs2" />
  <sodipodi:namedview
     id="base"
     pagecolor="#ffffff"
     bordercolor="#666666"
     borderopacity="1.0"
     inkscape:pageopacity="0.0"
     inkscape:pageshadow="2"
     inkscape:zoom="0.2317432"
     inkscape:cx="470.21417"
     inkscape:cy="418.85163"
     inkscape:document-units="mm"
     inkscape:current-layer="layer1"
     showgrid="false"
     inkscape:window-width="1366"
     inkscape:window-height="720"
     inkscape:window-x="0"
     inkscape:window-y="26"
     inkscape:window-maximized="1"
     units="px"
     borderlayer="true"
     inkscape:showpageshadow="false" />
  <metadata
     id="metadata5">
    <rdf:RDF>
      <cc:Work
         rdf:about="">
        <dc:format>image/svg+xml</dc:format>
        <dc:type
           rdf:resource="http://purl.org/dc/dcmitype/StillImage" />
        <dc:title></dc:title>
      </cc:Work>
    </rdf:RDF>
  </metadata>
  <g
     inkscape:label="Capa 1"
     inkscape:groupmode="layer"
     id="layer1"
     transform="translate(0,-26.06664)">
    <path
       style="fill:#000000;stroke-width:0.27132532"
       d="m 136.84664,245.45045 c -0.0523,-0.009 -0.66937,0.32667 -1.3713,0.74479 -0.70194,0.41812 -1.38905,0.67892 -1.52693,0.57956 -0.16267,-0.11721 -0.28054,0.003 -0.33564,0.34309 -0.063,0.38794 -0.57389,0.84256 -1.97046,1.75312 -1.96162,1.27901 -3.81091,2.36998 -4.87817,2.87783 -0.34238,0.16303 -1.50217,0.84164 -2.57721,1.5082 -1.07504,0.66656 -2.20838,1.24593 -2.51852,1.28751 -0.31014,0.0416 -0.76884,0.24966 -1.01932,0.46245 -0.25049,0.21274 -0.51987,0.40184 -0.59867,0.42014 -0.0786,0.0194 -0.86388,0.51546 -1.74464,1.10479 -0.88076,0.58932 -1.80124,1.08573 -2.04551,1.10313 -0.24429,0.0169 -0.90721,0.3302 -1.47323,0.69515 -0.56602,0.36496 -1.94093,1.06905 -3.05535,1.56466 -1.11442,0.4956 -2.7219,1.3566 -3.57216,1.91336 -0.85024,0.55677 -1.76516,0.99729 -2.03313,0.97904 -0.90059,-0.0614 -6.367899,2.50988 -10.028371,4.71643 -0.623272,0.37572 -1.843651,0.95041 -2.711909,1.27711 -1.454497,0.54726 -2.869211,1.2044 -3.570656,1.65857 -0.156782,0.10152 -0.405909,0.0335 -0.553653,-0.1514 -0.170344,-0.213 -0.237243,-0.20787 -0.182906,0.0139 0.06562,0.26837 -0.16097,0.40547 -0.971468,0.58768 -0.581412,0.13092 -1.282016,0.34338 -1.556822,0.47255 -1.524103,0.71646 -2.07376,0.88608 -2.494011,0.76962 -0.256373,-0.0711 -0.889646,0.11816 -1.407287,0.42048 -0.517641,0.30233 -1.22537,0.58775 -1.572719,0.63429 -0.347364,0.0466 -0.873554,0.25907 -1.16932,0.47231 -0.295766,0.21323 -0.768158,0.32799 -1.049757,0.25503 -0.281595,-0.0729 -0.624117,-0.0527 -0.761097,0.0456 -0.13691,0.0978 -0.614787,0.23044 -1.061664,0.29514 -0.834773,0.12079 -2.421342,0.70588 -2.650626,0.97746 -0.07083,0.084 -0.179895,-0.0408 -0.242269,-0.27703 -0.06241,-0.23628 -0.18852,-0.35151 -0.280245,-0.25606 -0.09178,0.0954 -0.555955,0.43622 -1.031539,0.75735 -0.661043,0.44621 -0.966066,0.5001 -1.294761,0.22863 -0.236512,-0.19537 -0.478689,-0.23767 -0.53817,-0.094 -0.05951,0.14367 -0.195917,0.13943 -0.302646,-0.009 -0.106964,-0.14836 -0.212966,-0.15576 -0.235556,-0.0164 -0.02263,0.13934 -0.340795,0.21991 -0.707058,0.17907 -0.36628,-0.0407 -0.61737,-0.007 -0.557978,0.0756 0.162948,0.22605 -1.385323,0.40198 -2.896481,0.32917 -0.737403,-0.0356 -1.386344,0.0455 -1.442092,0.18025 -0.05576,0.13463 -0.35716,0.1197 -0.669785,-0.0332 -0.312617,-0.15287 -0.61587,-0.16331 -0.673888,-0.0232 -0.05801,0.14011 -0.223279,0.16985 -0.367178,0.0661 -0.143953,-0.10371 -0.629884,0.0575 -1.079862,0.35829 -0.449967,0.30082 -0.846525,0.49208 -0.881195,0.42508 -0.176188,-0.34037 -0.992552,-0.62237 -1.254704,-0.43338 -0.164578,0.11876 -0.874303,0.141 -1.577107,0.05 -0.702805,-0.0912 -1.748031,-0.17702 -2.322687,-0.19066 -0.574674,-0.0136 -1.150741,-0.17165 -1.280153,-0.35117 -0.129404,-0.17952 -0.290211,-0.19378 -0.357314,-0.0316 -0.06711,0.16207 -0.182272,0.21112 -0.255833,0.10908 -0.07363,-0.10211 -0.52438,-0.14998 -1.001715,-0.10639 -1.219913,0.11144 -2.839834,-0.11871 -3.068462,-0.43585 -0.105983,-0.147 -0.208671,-0.16874 -0.228196,-0.0482 -0.07209,0.44443 -3.773527,-0.26921 -5.454338,-1.05159 -0.954379,-0.44424 -1.967488,-0.82356 -2.25135,-0.84292 -0.283861,-0.0194 -0.685886,-0.27069 -0.893362,-0.55849 -0.207486,-0.28782 -0.467453,-0.45827 -0.577708,-0.37879 -0.323347,0.23312 -2.588808,-1.1088 -2.801681,-1.65953 -0.107149,-0.27717 -0.405736,-0.51832 -0.663528,-0.53591 -0.444692,-0.0303 -1.722512,-0.97 -1.887463,-1.38796 -0.04239,-0.10739 -0.156665,-0.13792 -0.253969,-0.0678 -0.246484,0.17771 -2.025525,-2.25976 -2.112804,-2.89468 -0.05329,-0.38761 -0.227536,-0.49887 -0.685329,-0.43752 -0.337645,0.0452 -0.718474,-0.0628 -0.846303,-0.24013 -0.127835,-0.17733 -0.37788,-0.21756 -0.555655,-0.0894 -0.183112,0.13196 -0.367274,0.0662 -0.424802,-0.15152 -0.06018,-0.22818 -0.320349,-0.29999 -0.639528,-0.1766 -0.311302,0.12032 -0.668575,0.0268 -0.847933,-0.22204 -0.170484,-0.23648 -0.691725,-0.43741 -1.158331,-0.44652 -0.723523,-0.0141 -0.90887,-0.14578 -1.259654,-0.89477 -0.226211,-0.48304 -0.522715,-1.02368 -0.658912,-1.20145 -0.417893,-0.54541 -0.402487,-3.38066 0.02117,-3.89988 0.219758,-0.26933 0.307836,-0.61693 0.195736,-0.77243 -0.112106,-0.15549 -0.114002,-0.41988 -0.0042,-0.58751 0.109761,-0.16763 0.06101,-0.78826 -0.108345,-1.37921 -0.169352,-0.59095 -0.296261,-1.53742 -0.282081,-2.10323 0.01421,-0.56581 -0.164656,-1.49047 -0.397526,-2.05479 -0.663133,-1.6072 -1.12007,-4.61622 -0.962439,-6.3379 0.03908,-0.42682 0.01828,-1.249 -0.04622,-1.82705 -0.06453,-0.57806 -0.02242,-1.61583 0.09352,-2.30614 0.115948,-0.69031 0.173445,-1.30697 0.127777,-1.37031 -0.156531,-0.21714 0.0865,-1.1613 0.290413,-1.12823 0.112084,0.0181 0.16542,-0.25321 0.118532,-0.6031 -0.04691,-0.34987 0.05982,-0.74074 0.237147,-0.86855 0.177318,-0.12786 0.251,-0.33146 0.16373,-0.45252 -0.08725,-0.12107 -0.05838,-0.29229 0.06368,-0.38039 0.122291,-0.0881 0.465637,-0.86248 0.762978,-1.72071 0.297348,-0.85824 0.633609,-1.62747 0.747263,-1.70938 0.113643,-0.082 0.248255,-0.36713 0.29913,-0.63375 0.194605,-1.0198 0.851419,-2.87152 1.075968,-3.0334 0.129133,-0.0931 0.159173,-0.27414 0.06674,-0.40233 -0.09244,-0.1282 -0.03476,-0.24257 0.128138,-0.25418 0.162906,-0.0115 0.285465,-0.17154 0.272382,-0.35542 -0.03024,-0.42363 2.149043,-4.55345 2.558481,-4.84861 0.168173,-0.12135 0.250637,-0.29697 0.183207,-0.3905 -0.06739,-0.0935 0.09935,-0.62768 0.370622,-1.187 0.441565,-0.91046 0.657159,-1.1878 1.576367,-2.02789 0.138642,-0.12664 0.18064,-0.3294 0.09337,-0.45044 -0.08724,-0.12104 -0.04455,-0.20163 0.09468,-0.17899 0.139347,0.0227 0.312521,-0.23579 0.384858,-0.57417 0.07235,-0.33838 0.329336,-0.78178 0.571112,-0.98532 0.24178,-0.20356 0.383371,-0.44808 0.314672,-0.54338 -0.06871,-0.0952 0.02366,-0.28036 0.205244,-0.41126 0.181566,-0.13095 0.254532,-0.34289 0.162114,-0.47109 -0.09244,-0.12818 -0.04525,-0.24185 0.104331,-0.25245 0.1498,-0.0107 0.701315,-0.86373 1.225587,-1.89572 0.906094,-1.78357 1.348614,-2.45637 1.937898,-2.94631 0.143783,-0.11953 0.209669,-0.28914 0.146403,-0.3769 -0.0633,-0.0878 0.101877,-0.43284 0.366979,-0.76687 0.265095,-0.33402 0.520872,-0.65778 0.568383,-0.71946 0.04754,-0.0616 0.461166,-0.78933 0.919208,-1.617 0.458054,-0.82766 1.112148,-1.7994 1.453561,-2.15944 0.341411,-0.36004 0.734164,-0.8762 0.87279,-1.14706 0.138625,-0.27084 0.435335,-0.6944 0.659363,-0.94127 0.224024,-0.24684 0.779699,-0.87181 1.234837,-1.38879 1.554907,-1.76623 2.953343,-3.06303 3.300877,-3.06104 0.44089,0.003 0.649232,-0.17587 1.247893,-1.06853 0.476335,-0.71027 1.64573,-2.00075 4.284497,-4.72815 1.422285,-1.47004 7.293345,-5.72983 7.962827,-5.77748 0.2172,-0.0152 0.337446,-0.1085 0.267243,-0.20667 -0.07029,-0.0981 0.366392,-0.58871 0.970224,-1.09 2.172546,-1.80359 12.87821,-9.21284 15.746748,-10.89814 0.971274,-0.57062 2.930329,-1.8405 4.353452,-2.82195 1.42313,-0.98144 2.883195,-1.89624 3.244599,-2.03288 1.344389,-0.50829 5.120279,-3.06059 10.682372,-7.22067 0.717118,-0.53637 2.058158,-1.49476 2.980084,-2.1298 0.921942,-0.63503 1.846782,-1.28341 2.055222,-1.44085 0.20842,-0.15743 0.7002,-0.51924 1.09283,-0.80396 0.39263,-0.28471 1.39323,-1.0368 2.22357,-1.67127 0.83037,-0.63448 2.17195,-1.51738 2.98132,-1.962 3.98736,-2.19053 10.44563,-6.65622 13.91909,-9.62458 1.19526,-1.02145 2.67854,-2.23173 3.29619,-2.68952 0.61767,-0.45778 1.02386,-0.87375 0.90267,-0.92435 -0.12117,-0.0505 0.0578,-0.29271 0.3977,-0.53801 0.33991,-0.24531 1.34784,-1.20835 2.23983,-2.14012 0.89198,-0.93177 1.93498,-1.99041 2.3178,-2.35253 0.38282,-0.36213 1.10992,-1.12821 1.6158,-1.70241 0.50589,-0.57419 1.1524,-1.24331 1.43669,-1.4869 0.2843,-0.24361 0.82325,-0.74872 1.19768,-1.12251 1.31036,-1.30808 2.67759,-2.56881 3.71701,-3.42741 2.74675,-2.26895 3.41156,-2.87465 3.56273,-3.24596 0.0898,-0.22058 0.52931,-0.70534 0.97671,-1.07728 0.44741,-0.37195 0.85946,-0.85391 0.9157,-1.07104 0.0563,-0.21712 0.2944,-0.53619 0.52924,-0.70903 1.07528,-0.79147 4.05425,-3.28664 4.47423,-3.74764 0.25676,-0.2818 0.73372,-0.76849 1.05996,-1.08152 0.32623,-0.31302 0.93036,-0.9104 1.34254,-1.3275 0.41218,-0.41708 0.93963,-0.93817 1.17212,-1.15794 0.23248,-0.21978 0.62184,-0.71504 0.86524,-1.1006 0.2434,-0.38555 0.57648,-0.71052 0.74021,-0.72218 0.16371,-0.0117 0.57771,-0.40738 0.91999,-0.87937 0.34228,-0.47202 0.96207,-1.08423 1.37731,-1.36049 0.41526,-0.27625 1.23838,-1.05676 1.82918,-1.73446 0.5908,-0.6777 1.17942,-1.21511 1.30809,-1.19424 0.12866,0.0209 0.21914,-0.16982 0.20108,-0.42377 -0.0285,-0.40596 0.51772,-0.96776 2.2024,-2.26369 0.23304,-0.17926 0.41139,-0.49833 0.39635,-0.70904 -0.0148,-0.21073 0.23582,-0.59992 0.55748,-0.86489 0.78788,-0.64893 1.07052,-0.99833 1.44589,-1.78719 0.17467,-0.36708 0.59196,-0.93652 0.92736,-1.26546 0.33541,-0.32894 0.6384,-0.75674 0.67335,-0.95068 0.035,-0.19395 0.2305,-0.472991 0.43457,-0.620097 0.20404,-0.147123 0.54804,-0.619937 0.76441,-1.050725 0.21636,-0.430807 0.60996,-0.940308 0.87465,-1.132258 0.26475,-0.191825 0.47104,-0.492169 0.45861,-0.667155 -0.0124,-0.174986 0.12715,-0.426145 0.31022,-0.558126 0.18309,-0.131961 0.37435,-0.495638 0.42502,-0.808118 0.0507,-0.312468 0.28663,-0.708354 0.52436,-0.879727 0.23772,-0.171373 0.5503,-0.610206 0.69463,-0.97518 0.14433,-0.364985 0.48635,-0.874947 0.76004,-1.133258 0.2737,-0.25831 0.49877,-0.59336 0.50016,-0.744569 0.002,-0.23491 0.33125,-0.67718 0.86277,-1.159486 0.0755,-0.06849 0.18557,-0.422785 0.24471,-0.787341 0.0591,-0.364553 0.17993,-0.733869 0.26846,-0.820683 0.0885,-0.08688 0.17149,-0.195429 0.18436,-0.241379 0.0129,-0.04598 0.22604,-0.295287 0.4737,-0.554089 0.24768,-0.258803 0.58499,-0.867082 0.74958,-1.351717 0.16459,-0.484636 0.45731,-0.99508 0.65046,-1.134332 0.19316,-0.139274 0.28932,-0.339006 0.21368,-0.443934 -0.1775,-0.246217 1.35534,-2.741588 1.69913,-2.766047 0.14353,-0.0102 0.25037,-0.167461 0.23742,-0.34934 -0.0345,-0.482876 1.70431,-3.427787 2.5696,-4.35232 0.40869,-0.436659 1.11649,-1.111088 1.57291,-1.498718 0.45639,-0.387636 1.13341,-1.014409 1.50449,-1.392848 0.66056,-0.67369 1.8918,-1.788313 3.54188,-3.206417 0.45433,-0.390475 1.12992,-1.019264 1.50127,-1.397295 1.11786,-1.137967 4.52312,-3.517616 6.11672,-4.274455 0.82226,-0.390518 1.9055,-0.923579 2.40719,-1.184593 0.50171,-0.261019 0.96371,-0.403083 1.0267,-0.315729 0.063,0.08738 0.36729,-0.08665 0.67636,-0.386296 0.45235,-0.438948 0.84709,-0.4936 2.02633,-0.280478 l 1.46453,0.264674 0.59727,-0.927968 c 0.40337,-0.626702 0.53796,-1.250971 0.41459,-1.922974 -0.10054,-0.547272 -0.0788,-1.070216 0.0492,-1.162185 0.28831,-0.207836 0.72156,-2.931938 0.74014,-4.653804 0.0159,-1.472958 0.49268,-2.51622 1.14591,-2.507376 0.23773,0.0032 0.78859,-0.207689 1.22414,-0.468691 0.73219,-0.438763 2.2161,-0.352135 2.83621,0.165566 0.11829,0.09869 0.47575,0.175959 0.7945,0.171627 0.31878,-0.0043 0.8967,0.29397 1.2843,0.662925 0.38762,0.368934 0.80516,0.598423 0.92787,0.509964 0.12272,-0.08847 0.23087,-0.05188 0.24035,0.08128 0.009,0.133172 0.29482,0.332517 0.6341,0.443004 0.33927,0.110482 0.55878,0.120298 0.48777,0.02182 -0.071,-0.09848 0.0614,-0.17573 0.29434,-0.171686 0.66596,0.01163 2.20443,-1.527557 2.45892,-2.46008 0.2123,-0.777892 2.75736,-2.466264 3.5796,-2.374674 0.38678,0.0431 0.96594,-0.11101 1.28699,-0.342466 0.69369,-0.500074 1.22837,-0.134442 2.57685,1.762083 0.67307,0.946723 0.96306,1.698635 1.17855,3.056426 0.27894,1.75725 0.30139,1.800719 0.92993,1.795391 0.35425,-0.0031 0.74671,0.136891 0.87212,0.310855 0.1254,0.173953 0.28292,0.18367 0.35003,0.0216 0.0671,-0.162077 0.19283,-0.19648 0.27937,-0.07645 0.17643,0.24472 0.83925,0.06864 1.88435,-0.500604 4.11409,-2.240749 5.9674,-2.9184 6.22392,-2.275696 0.0627,0.157107 0.16083,0.172498 0.21816,0.03416 0.15196,-0.366991 2.4589,-0.03778 2.48686,0.354896 0.0129,0.182929 0.23845,0.388208 0.5009,0.456211 0.54977,0.142403 1.63138,1.890928 1.75906,2.843659 0.0468,0.34831 0.2569,0.74596 0.46717,0.883643 0.24992,0.163657 0.25985,0.33862 0.0289,0.505286 -0.19454,0.140269 -0.27397,0.365576 -0.17653,0.500739 0.10214,0.141707 -0.081,0.365963 -0.43272,0.5297 -0.82214,0.382768 -1.10985,1.083179 -0.43278,1.05356 0.38249,-0.01673 0.42237,0.02597 0.18673,0.199874 -0.20877,0.15397 -0.17372,0.257194 0.11557,0.339965 0.22832,0.06538 1.02083,0.585279 1.76118,1.155334 0.74036,0.570062 1.7421,1.095753 2.2261,1.168197 0.48398,0.07246 0.93979,0.214662 1.01288,0.316032 0.36611,0.50787 0.57756,2.307337 0.33047,2.812639 -0.15446,0.315879 -0.334,0.902285 -0.39902,1.303157 -0.065,0.400857 -0.39555,0.928756 -0.73451,1.173107 -0.33893,0.244347 -0.64756,0.599178 -0.68586,0.788509 -0.0685,0.338734 -1.15415,1.93049 -1.683,2.467503 -0.14867,0.150982 -0.26626,0.405436 -0.26129,0.565484 0.0176,0.566177 -0.56114,1.153734 -0.91083,0.924712 -0.19868,-0.130094 -0.22917,-0.861468 -0.0728,-1.742386 0.26396,-1.486181 0.21442,-2.168731 -0.1063,-1.459089 -0.0935,0.207206 -0.14464,0.21729 -0.12197,0.02422 0.0213,-0.182908 0.10247,-0.383696 0.18007,-0.446157 0.0776,-0.06248 0.28668,-0.433626 0.46461,-0.824796 0.17789,-0.391165 0.36384,-0.759608 0.41319,-0.818758 0.51313,-0.615165 1.63879,-2.830469 1.52113,-2.993641 -0.0839,-0.116504 -0.54542,-0.345186 -1.02545,-0.508206 -0.48001,-0.163033 -0.85514,-0.405008 -0.83361,-0.537741 0.0215,-0.132712 -0.0685,-0.163702 -0.20016,-0.06877 -0.13157,0.09488 -0.51438,-0.07366 -0.85059,-0.374534 -0.33621,-0.300877 -0.95292,-0.646502 -1.37045,-0.768055 -1.01616,-0.295847 -1.77412,-0.888838 -1.618,-1.265857 0.0699,-0.168683 -0.0689,-0.578402 -0.30827,-0.910504 -0.37881,-0.525463 -0.32902,-0.758844 0.38363,-1.798347 0.90812,-1.324592 0.93299,-1.942947 0.12337,-3.066013 -0.54838,-0.760678 -1.09913,-0.959551 -1.81028,-0.653674 -0.21015,0.09038 -0.47782,0.136003 -0.59479,0.101291 -0.11706,-0.03468 -0.95038,0.375222 -1.85193,0.910901 -3.12893,1.859085 -4.84631,2.471586 -6.5058,2.320277 -2.3393,-0.213317 -2.9879,-0.361143 -3.01103,-0.686324 -0.0127,-0.179332 -0.22505,-0.694503 -0.47181,-1.144847 -0.24674,-0.450324 -0.49467,-1.32038 -0.55095,-1.933424 -0.0563,-0.613027 -0.37469,-1.589407 -0.70756,-2.169694 -0.5927,-1.03326 -0.62789,-1.049955 -1.70212,-0.80706 -1.17626,0.265972 -1.55108,0.644932 -2.86596,2.897784 -0.54176,0.92822 -1.85482,1.978739 -2.77804,2.222563 -0.18098,0.04777 -0.39068,0.609061 -0.46603,1.247254 -0.0753,0.638188 -0.25232,1.408781 -0.39327,1.712428 -0.14095,0.303622 -0.21001,0.848223 -0.15343,1.210192 0.16105,1.030899 -0.0982,2.451136 -0.45214,2.476323 -0.18952,0.01347 -0.17243,0.08435 0.0421,0.173004 0.21508,0.08904 0.30078,0.462221 0.21064,0.916318 -0.0838,0.421371 -0.059,0.895487 0.055,1.053589 0.11399,0.158104 0.13817,0.609571 0.0542,1.00316 -0.0841,0.393632 -0.057,0.848919 0.06,1.011756 0.11731,0.162838 0.1327,0.354208 0.0348,0.425281 -0.0986,0.07106 -0.0953,0.592276 0.007,1.158147 0.19167,1.055351 -0.39802,1.633887 -0.92305,0.905599 -0.30164,-0.418409 -0.40075,-2.775738 -0.15024,-3.572149 0.0978,-0.310889 0.0939,-0.684343 -0.009,-0.829892 -0.10183,-0.146126 -0.05,-1.190963 0.11708,-2.323174 0.16704,-1.132208 0.21038,-2.341286 0.0963,-2.686837 -0.11413,-0.345545 -0.10585,-0.611822 0.0182,-0.591683 0.25645,0.04159 0.79489,-2.712001 0.58678,-3.000704 -0.0748,-0.103563 -0.71794,-0.34896 -1.42943,-0.545307 -0.71152,-0.196328 -1.6012,-0.681434 -1.97705,-1.078009 -0.37583,-0.396586 -1.10821,-0.806624 -1.62743,-0.911227 -0.51925,-0.104588 -0.89547,-0.122686 -0.836,-0.04023 0.0595,0.08246 -0.16644,0.186718 -0.50194,0.231679 -0.33552,0.04496 -0.55323,0.16053 -0.48383,0.256815 0.13029,0.180622 -0.004,1.335151 -0.34734,2.985374 -0.10812,0.519803 -0.0633,1.032358 0.0995,1.139008 0.43167,0.282669 -0.25538,4.679352 -0.80884,5.176133 -0.28407,0.254991 -0.52216,0.295489 -0.60949,0.103693 -0.20844,-0.45788 -0.33252,-0.276555 -0.45163,0.66005 -0.0961,0.755673 -0.11929,0.779768 -0.26398,0.27392 -0.0872,-0.305028 -0.18695,-0.420968 -0.22159,-0.257632 -0.0347,0.163349 -0.38644,0.266454 -0.7818,0.229087 -0.39539,-0.0373 -0.56729,-3.65e-4 -0.382,0.08213 0.18896,0.08406 0.21135,0.288276 0.0483,0.466878 -0.22753,0.249901 -0.14457,0.306825 0.39209,0.269055 0.56478,-0.03975 0.61649,-0.07703 0.30375,-0.218963 -0.2073,-0.09408 -0.0335,-0.117597 0.38625,-0.05233 0.41976,0.06533 0.77255,0.202905 0.78398,0.305728 0.0107,0.102929 0.34561,0.122103 0.74262,0.04282 0.39693,-0.07941 0.82277,-0.004 0.94621,0.167201 0.12345,0.171219 0.41954,0.259783 0.65802,0.196795 0.33562,-0.08866 0.45158,0.01979 0.51327,0.47998 0.0439,0.326967 0.21947,0.78851 0.39045,1.025617 0.36457,0.505721 0.0759,1.071439 -0.56786,1.110269 -0.24845,0.015 -0.71308,0.213356 -1.03248,0.440795 -0.70762,0.503885 -1.74123,0.338884 -1.50163,-0.239777 0.20745,-0.500977 -0.07,-0.734119 -0.76321,-0.641224 -0.31346,0.04198 -0.58904,0.01138 -0.61243,-0.06806 -0.073,-0.248108 -1.52552,-0.400585 -2.28538,-0.239887 -0.39906,0.08443 -1.17594,0.348041 -1.72639,0.58585 -0.98784,0.426793 -1.90531,0.24826 -1.22913,-0.239198 0.19164,-0.138157 0.28242,-0.342819 0.20173,-0.454765 -0.0809,-0.111933 0.22313,-0.421232 0.67522,-0.687292 0.45207,-0.266055 0.75599,-0.575212 0.6754,-0.687 -0.0806,-0.111787 0.20454,-0.218929 0.63361,-0.23807 0.55227,-0.02463 0.77275,-0.138934 0.75474,-0.391406 -0.0138,-0.196136 -0.12768,-0.373199 -0.25258,-0.393544 -0.12499,-0.0203 -0.14236,0.0809 -0.0385,0.224973 0.12786,0.177334 -0.068,0.273314 -0.60711,0.297348 -0.43776,0.01954 -0.85322,0.173991 -0.92331,0.34316 -0.07,0.169218 -0.2149,0.186275 -0.32187,0.03788 -0.10698,-0.148367 -0.21266,-0.157618 -0.2349,-0.02048 -0.0222,0.137063 -0.21856,0.237062 -0.43632,0.222205 -0.21775,-0.01487 -0.89128,0.292577 -1.49674,0.683113 -0.60549,0.390574 -1.22898,0.626219 -1.38561,0.523674 -0.19256,-0.126119 -0.75411,0.194094 -1.73508,0.989315 -0.85478,0.692926 -1.57455,1.124387 -1.75271,1.050616 -0.45287,-0.187527 -0.92761,0.25552 -0.73839,0.689027 0.1444,0.330679 0.0601,0.395524 -0.64563,0.497546 -0.44637,0.0646 -0.82818,0.21954 -0.84845,0.344459 -0.0203,0.124929 -0.18406,0.382204 -0.36404,0.571748 -0.5995,0.631412 -2.11079,2.029983 -2.70271,2.501131 -0.32145,0.255845 -0.52496,0.547735 -0.45224,0.648614 0.0728,0.100867 -0.0219,0.230527 -0.21038,0.288136 -0.18843,0.05761 -0.60642,0.43155 -0.92888,0.831026 -0.39233,0.486016 -0.74058,0.715776 -1.0527,0.694487 -0.34294,-0.02336 -0.49142,0.09995 -0.56102,0.46604 -0.0521,0.273828 -0.33082,0.692188 -0.61949,0.929714 -0.28869,0.237504 -0.64333,0.580704 -0.78812,0.76266 -0.14477,0.181956 -0.61852,0.777528 -1.05275,1.323521 -0.43424,0.545973 -0.83826,1.176086 -0.89784,1.400255 -0.0595,0.224142 -0.35104,0.626522 -0.64772,0.894141 -0.29669,0.26762 -0.53921,0.61975 -0.53894,0.782491 0.001,0.594777 -3.17284,6.484239 -3.79201,7.036555 -0.35081,0.312954 -0.7118,0.635353 -0.80216,0.716454 -0.0904,0.0812 -0.0317,0.202374 0.13031,0.269517 0.17457,0.07229 -0.0126,0.343531 -0.45894,0.665333 -0.42037,0.303047 -0.86078,0.916363 -0.99592,1.386924 -0.13325,0.46399 -0.44949,0.992995 -0.70276,1.175582 -0.2533,0.182599 -0.3891,0.431022 -0.30184,0.552072 0.0872,0.121067 -0.0134,0.346867 -0.22362,0.50178 -0.21027,0.154869 -0.60523,0.891192 -0.87769,1.636157 -0.27248,0.744966 -0.72813,1.522263 -1.01254,1.727287 -0.28442,0.20504 -0.46267,0.44831 -0.39613,0.54062 0.0665,0.0923 -0.40834,0.84288 -1.0553,1.66797 -1.10701,1.41181 -1.28897,1.63442 -1.86621,2.283 -0.12703,0.14276 -0.30267,0.43495 -0.39029,0.64931 -0.0877,0.21435 -0.50222,0.63695 -0.92134,0.93911 -0.41911,0.30213 -0.8009,0.75044 -0.84838,0.99624 -0.0475,0.24581 -0.31348,0.65384 -0.59106,0.90678 -1.26975,1.15698 -1.52315,1.42007 -1.77774,1.84574 -0.14958,0.2501 -0.37677,0.43771 -0.50485,0.41693 -0.12808,-0.0208 -0.28019,0.12464 -0.33798,0.32316 -0.1767,0.60693 -1.53814,1.8088 -1.88584,1.6648 -0.20679,-0.0856 -0.32145,0.0898 -0.32419,0.49606 -0.003,0.46686 -0.31897,0.87583 -1.22775,1.58991 -1.49955,1.17824 -2.67814,2.26332 -2.81353,2.59028 -0.0557,0.13467 -0.29288,0.25849 -0.5269,0.27516 -0.24924,0.0173 -0.65311,0.40931 -0.97498,0.94525 -0.30222,0.50323 -0.84187,1.09865 -1.19923,1.32315 -0.35735,0.22448 -0.54744,0.45052 -0.42241,0.5023 0.125,0.0518 -0.0108,0.26582 -0.3019,0.47565 -0.29107,0.20983 -0.57512,0.31782 -0.63126,0.23995 -0.056,-0.0778 -0.29824,-0.0897 -0.53807,-0.0263 -0.27418,0.0725 -0.31571,0.165 -0.1118,0.24945 0.56218,0.23281 0.0409,0.90836 -1.60817,2.08416 -0.87796,0.62599 -1.65689,1.28452 -1.73097,1.46343 -0.0741,0.17889 -0.4733,0.62216 -0.88714,0.98505 -0.41384,0.36287 -0.96198,0.89111 -1.21806,1.17385 -1.94787,2.15059 -3.62177,3.76932 -4.63222,4.47957 -0.65384,0.45957 -1.23409,0.94406 -1.28945,1.07666 -0.17973,0.43031 -2.65419,2.85564 -3.68871,3.61542 -0.36082,0.26504 -0.76475,0.64424 -0.89761,0.84273 -0.13286,0.1985 -0.4264,0.52208 -0.65231,0.71908 -0.22592,0.19698 -0.70922,0.77057 -1.07401,1.27461 -0.3648,0.50402 -0.96775,1.12304 -1.33988,1.37556 -0.37213,0.2525 -0.71939,0.62432 -0.7717,0.82624 -0.0523,0.20192 -0.43972,0.6102 -0.86093,0.9073 -0.74817,0.52771 -2.16521,2.01248 -2.68724,2.81567 -0.14381,0.22126 -0.37744,0.35427 -0.51918,0.29558 -0.14175,-0.0588 -0.57994,0.18808 -0.97382,0.54826 -0.39387,0.36025 -0.62712,0.69185 -0.51833,0.7369 0.10885,0.0451 -0.10763,0.32072 -0.48088,0.6126 -0.37326,0.29189 -1.11129,0.87009 -1.6401,1.28492 -1.04295,0.81811 -7.03127,4.86173 -7.08648,4.78514 -0.0427,-0.0593 -2.17597,1.31651 -5.97923,3.85666 -1.6377,1.09379 -3.12959,1.99954 -3.31535,2.01276 -0.18584,0.0131 -0.26735,0.12179 -0.18122,0.24128 0.17008,0.23592 -3.21845,2.57478 -3.78915,2.61539 -0.18349,0.013 -0.28696,0.20054 -0.22988,0.41663 0.0777,0.29447 -0.16067,0.52853 -0.9519,0.93445 -0.58061,0.29785 -1.21058,0.77201 -1.399928,1.05366 -0.218075,0.32438 -0.407352,0.42462 -0.516343,0.27344 -0.09455,-0.13127 -0.332715,-0.0442 -0.529082,0.19357 -0.196363,0.23773 -0.446845,0.39503 -0.556626,0.34958 -0.261411,-0.10825 -1.455671,0.84874 -2.245202,1.79914 -0.555588,0.6688 -1.113092,1.09319 -3.237974,2.46488 -0.313851,0.2026 -0.846466,0.66431 -1.183585,1.02603 -0.337116,0.36172 -0.677603,0.56797 -0.75663,0.45836 -0.07903,-0.10963 -0.425418,-0.016 -0.769778,0.2081 -1.909207,1.24247 -3.93857,2.33608 -4.290426,2.31207 -0.255986,-0.0174 -0.595439,0.2485 -0.933511,0.73142 -0.393229,0.56173 -0.641847,0.74092 -0.957047,0.6898 -0.558121,-0.0905 -0.900297,0.16374 -0.463717,0.34444 0.223339,0.0925 0.199489,0.1509 -0.06942,0.17004 -0.566072,0.0399 -5.498787,3.49273 -5.474662,3.83174 0.01075,0.151 -0.143309,0.28617 -0.342354,0.30032 -0.199052,0.014 -1.92647,1.10075 -3.838741,2.41459 -3.22234,2.21396 -4.631975,3.10635 -4.718128,2.98685 -0.01912,-0.0266 -1.497555,0.98238 -3.285335,2.24209 -2.116475,1.4913 -3.149355,2.33416 -2.960557,2.41584 0.159468,0.0689 0.02441,0.11031 -0.300159,0.0919 -0.324602,-0.0186 -0.526121,0.0552 -0.447862,0.16371 0.07824,0.10858 -1.464306,1.36159 -3.427942,2.78449 -3.395515,2.46047 -5.340767,4.07697 -5.568808,4.62763 -0.05708,0.13782 -0.90726,0.99177 -1.88931,1.89767 -0.98206,0.90592 -1.999043,1.87294 -2.259972,2.14898 -0.260922,0.27602 -0.64521,0.68249 -0.853968,0.90328 -0.208764,0.22079 -0.596853,0.6314 -0.862434,0.91244 -0.615712,0.65161 -2.984017,3.66688 -3.393043,4.31993 -0.171046,0.2731 -0.582717,0.9548 -0.914818,1.51485 -0.585068,0.98666 -1.015789,1.55176 -1.633041,2.14248 -0.163285,0.15627 -0.485332,0.75347 -0.715658,1.32715 -0.230326,0.57364 -0.551446,1.1392 -0.713616,1.25678 -0.162163,0.1176 -0.403852,0.59343 -0.537107,1.05741 -0.133251,0.464 -0.421163,0.97258 -0.6398,1.1302 -0.218636,0.15759 -0.388478,0.41352 -0.377441,0.56867 0.01102,0.15515 -0.285423,0.60303 -0.6588,0.99529 -0.373359,0.39226 -0.732202,1.04218 -0.797417,1.44427 -0.06522,0.4021 -0.476189,1.0871 -0.913267,1.52227 -0.437089,0.43514 -0.833331,1.02932 -0.880535,1.32038 -0.04719,0.29106 -0.121276,0.53966 -0.164616,0.55246 -0.371211,0.10969 -2.246708,3.12672 -2.309391,3.7151 -0.03851,0.36149 -0.176386,0.63998 -0.306415,0.6189 -0.130023,-0.0211 -0.153093,0.0771 -0.05128,0.21843 0.101829,0.14123 0.04221,0.35981 -0.132456,0.48573 -0.174663,0.12591 -0.520023,0.69077 -0.767465,1.25527 -0.247457,0.56448 -0.50141,0.9549 -0.564347,0.8676 -0.06291,-0.0873 -0.173662,0.07 -0.246082,0.34949 -0.0724,0.27953 -0.01557,0.55629 0.126341,0.61503 0.141862,0.0588 0.0882,0.15164 -0.119192,0.20642 -0.207305,0.0553 -0.505906,0.6433 -0.663315,1.30785 -0.157403,0.66454 -0.330119,1.38606 -0.383811,1.60337 -0.05369,0.21729 -0.173654,0.38277 -0.266564,0.3677 -0.09289,-0.0151 -0.205509,0.30094 -0.250214,0.70221 -0.0447,0.40129 -0.177715,0.79913 -0.295586,0.88409 -0.230337,0.16605 -1.532508,3.62596 -1.659602,4.4096 -0.04225,0.26052 -0.01619,0.55778 0.05792,0.66057 0.07407,0.10287 0.05895,0.49931 -0.03374,0.88117 -0.09266,0.38182 -0.06069,0.84376 0.07107,1.02652 0.131753,0.18277 0.09359,0.43755 -0.08494,0.56623 -0.178468,0.12867 -0.263937,0.64183 -0.189937,1.14036 0.07404,0.49853 0.03806,0.97599 -0.07988,1.06103 -0.117963,0.085 -0.140157,0.25764 -0.04935,0.3836 0.183556,0.25463 0.244607,1.87118 0.122481,3.24297 -0.04555,0.51145 0.180164,1.35904 0.527857,1.98215 0.608512,1.09061 0.959337,3.08021 0.720037,4.08349 -0.107976,0.45268 -0.09553,0.4724 0.08099,0.12824 0.18055,-0.35198 0.203998,-0.32618 0.174394,0.19204 -0.01881,0.32926 0.07381,0.61617 0.205906,0.63758 0.132063,0.0214 0.2253,0.25521 0.207289,0.51953 -0.01802,0.26432 0.06283,0.49607 0.179633,0.51504 0.116823,0.0188 0.319917,0.39573 0.451287,0.83725 0.255794,0.85982 -0.330641,1.56649 -1.185037,1.42793 -0.605199,-0.0981 -0.277428,0.3354 0.360348,0.47669 0.421522,0.0933 0.408946,0.10824 -0.08233,0.0976 -0.658329,-0.0145 -0.950329,0.44198 -0.596634,0.93262 0.130903,0.18158 0.114584,0.33892 -0.03633,0.34966 -0.150868,0.0108 -0.110333,0.22358 0.09007,0.47295 0.447681,0.55699 1.160829,0.40109 0.75925,-0.16571 -0.225971,-0.31834 -0.198642,-0.3703 0.12532,-0.24027 0.328724,0.13191 0.394548,0.0292 0.323078,-0.50406 -0.05887,-0.43908 0.09265,-0.76545 0.439873,-0.94762 0.707171,-0.37106 1.511002,0.52081 1.762252,1.95527 0.27191,1.55224 0.651432,2.15401 1.439166,2.28178 0.530107,0.0859 0.927703,0.44765 1.729859,1.57362 0.572705,0.80418 1.078897,1.37225 1.12454,1.26254 0.07306,-0.17557 0.748886,0.19929 1.340403,0.74345 0.112078,0.10317 0.793843,0.56332 1.514964,1.02267 0.721117,0.45932 1.319501,0.9529 1.329748,1.09682 0.01026,0.14394 0.225637,0.20702 0.478697,0.14017 0.253032,-0.0669 0.443747,-0.0199 0.423689,0.10281 -0.03852,0.23762 2.467014,1.57868 2.892868,1.5484 0.137765,-0.01 0.770639,0.24759 1.406422,0.57203 0.635785,0.32443 1.803612,0.67002 2.595173,0.76801 0.791556,0.098 1.49029,0.24902 1.552748,0.33565 0.162926,0.226 5.575155,0.98527 5.937895,0.83299 0.166764,-0.07 0.707467,-0.0458 1.201501,0.0537 0.49404,0.0995 1.01381,0.0976 1.15505,-0.004 0.141242,-0.10171 0.416418,-0.0803 0.611331,0.047 0.195003,0.1277 0.975725,0.17329 1.734936,0.1013 0.759203,-0.072 1.460658,-0.0195 1.558793,0.11663 0.09811,0.13611 0.195947,0.13945 0.217365,0.007 0.02144,-0.13207 0.427093,-0.22385 0.901541,-0.20389 0.474414,0.0199 0.997742,-0.0621 1.163053,-0.18044 0.165244,-0.11913 0.363196,-0.12959 0.439924,-0.0227 0.07668,0.10638 0.525275,0.10228 0.996876,-0.009 0.471555,-0.11163 0.920178,-0.11554 0.996869,-0.009 0.07668,0.10637 0.205243,0.12811 0.285705,0.0484 0.0805,-0.0797 0.238104,-0.1743 0.349992,-0.21046 0.112046,-0.0361 0.2881,-0.10497 0.391258,-0.15325 0.20237,-0.0948 1.482921,-0.0277 2.475854,0.12966 0.337978,0.0536 1.139573,-0.002 1.781345,-0.12422 0.641744,-0.12213 1.447986,-0.17632 1.791675,-0.11988 0.343637,0.0557 1.166265,-0.16706 1.827987,-0.49553 0.661741,-0.32828 1.264202,-0.6166 1.338787,-0.64074 0.546747,-0.17676 1.432869,-0.38504 2.490838,-0.58538 0.68127,-0.12892 1.480404,-0.34667 1.77593,-0.48367 0.295508,-0.13711 0.7586,-0.23408 1.029078,-0.21563 0.270477,0.0184 0.431002,-0.0539 0.356719,-0.1609 -0.07439,-0.10687 0.01035,-0.14615 0.188059,-0.0871 0.326918,0.10859 2.143939,-0.48856 3.367896,-1.10679 0.366763,-0.18534 0.906478,-0.3762 1.199317,-0.42426 0.292813,-0.0482 1.215195,-0.39301 2.049687,-0.76655 0.834502,-0.37352 1.93048,-0.83674 2.43551,-1.02934 0.880038,-0.33558 2.856102,-1.18106 4.007652,-1.7147 0.300278,-0.13917 1.20808,-0.67267 2.017371,-1.1856 0.809293,-0.51293 1.735002,-0.96646 2.057148,-1.00784 0.782893,-0.10057 1.650723,-0.33621 1.965883,-0.53373 0.14119,-0.0887 0.51565,-0.14333 0.83209,-0.12172 0.45824,0.0312 0.60205,-0.0639 0.70661,-0.46746 0.1026,-0.39613 0.4725,-0.6677 1.6951,-1.24442 0.86011,-0.40575 1.78805,-0.8443 2.06206,-0.97457 0.274,-0.13027 0.78842,-0.35627 1.14312,-0.50222 0.35468,-0.14597 1.02241,-0.47244 1.48383,-0.72553 0.97135,-0.53275 2.15405,-1.08638 2.78929,-1.30562 0.78493,-0.27095 3.30029,-1.5421 4.62055,-2.33501 0.70607,-0.4241 1.76561,-1.04222 2.35452,-1.37365 0.58889,-0.33145 1.65075,-0.94638 2.35968,-1.3665 0.70892,-0.42014 1.68137,-0.95031 2.16098,-1.17815 0.4796,-0.22788 1.09656,-0.52042 1.371,-0.65009 1.89948,-0.89756 16.05789,-10.47659 15.70282,-10.62392 -0.2195,-0.091 -0.0116,-0.28564 2.02738,-1.89946 0.58566,-0.46353 1.51405,-1.2636 2.06303,-1.77798 1.6853,-1.57912 4.82501,-4.11001 6.87526,-5.54213 1.68991,-1.18046 3.60632,-2.88503 3.46457,-3.08167 -0.13245,-0.18376 -0.22698,-0.093 2.17438,-2.08748 3.21116,-2.66707 3.53837,-2.97397 3.65632,-3.42935 0.0642,-0.24782 0.66314,-0.93042 1.331,-1.51692 0.66786,-0.58649 1.62782,-1.43225 2.13327,-1.87946 0.50546,-0.44721 1.64496,-1.58078 2.53228,-2.51898 0.88731,-0.93823 1.9752,-1.98658 2.41749,-2.32966 0.44229,-0.34311 0.74655,-0.704 0.67612,-0.80204 -0.0704,-0.0981 -0.0212,-0.1872 0.10848,-0.19808 0.13015,-0.0105 0.77655,-0.62792 1.43645,-1.37123 1.60512,-1.80795 1.79524,-2.00712 2.95383,-3.0942 0.54867,-0.51481 1.52241,-1.50527 2.16384,-2.20099 0.64145,-0.69573 1.26269,-1.24934 1.38057,-1.23023 0.44131,0.0715 0.89305,-0.33328 0.79332,-0.71096 -0.057,-0.21524 0.12757,-0.54807 0.40982,-0.73953 0.45779,-0.31049 1.27583,-1.14609 1.21061,-1.23656 -0.0133,-0.0193 0.23507,-0.29512 0.55314,-0.6131 0.31806,-0.318 0.62902,-0.774 0.69101,-1.01333 0.062,-0.23933 0.16591,-0.3614 0.23093,-0.27122 0.065,0.0902 0.1714,-0.0429 0.23683,-0.29412 0.0652,-0.25194 0.20715,-0.44372 0.31534,-0.42618 0.10817,0.0175 0.3899,-0.26119 0.62606,-0.61939 0.23615,-0.3582 0.88278,-1.0039 1.43693,-1.43492 0.60511,-0.4706 1.11481,-1.11604 1.27604,-1.61588 0.14769,-0.45775 0.6423,-1.18607 1.09915,-1.61849 0.45684,-0.43243 0.82179,-0.91009 0.81102,-1.06146 -0.0108,-0.15138 0.27171,-0.48521 0.62771,-0.74185 0.35601,-0.25667 0.5759,-0.5657 0.48863,-0.68674 -0.0872,-0.12107 0.0197,-0.34862 0.23751,-0.50569 0.21789,-0.15709 0.42803,-0.48211 0.46699,-0.72225 0.0389,-0.24016 0.61687,-0.84538 1.28427,-1.34493 0.682,-0.51048 1.20164,-1.0743 1.18647,-1.28732 -0.0236,-0.33167 1.01745,-1.74631 1.8902,-2.56849 0.16433,-0.15486 0.31263,-0.36672 0.32951,-0.47087 0.0168,-0.10422 0.37531,-0.69064 0.79644,-1.30328 0.5653,-0.82236 0.84362,-1.06677 1.06339,-0.93384 0.19897,0.12034 0.28644,-0.006 0.26382,-0.38088 -0.0194,-0.31214 0.23457,-0.75443 0.57148,-0.9973 0.33292,-0.24001 0.6356,-0.59276 0.67258,-0.78387 0.0532,-0.27516 2.50346,-3.64936 3.34855,-4.61134 0.10097,-0.11506 0.39317,-0.54495 0.64917,-0.9554 0.256,-0.41044 0.75781,-1.02026 1.11512,-1.35516 0.35734,-0.33487 0.75674,-0.82478 0.88761,-1.08863 0.65353,-1.31772 1.40724,-2.39585 1.68891,-2.41589 0.17306,-0.0123 0.23727,-0.12971 0.14268,-0.26092 -0.0945,-0.1312 0.0176,-0.52606 0.24927,-0.87748 0.36196,-0.54904 0.76534,-0.99456 2.06055,-2.27584 0.12909,-0.12764 0.29932,-0.53445 0.37829,-0.90394 0.0798,-0.37325 0.54028,-0.98205 1.03622,-1.36996 0.49092,-0.38397 0.80839,-0.71181 0.70548,-0.7285 -0.32622,-0.0529 -0.1382,-0.96328 0.25779,-1.2488 0.20925,-0.15087 0.65549,-0.8112 0.99164,-1.46745 0.33616,-0.65626 0.78428,-1.37064 0.99585,-1.58755 0.21159,-0.21688 0.38604,-0.49685 0.38772,-0.62211 0.002,-0.1253 0.6264,-1.13776 1.38829,-2.24996 2.15583,-3.14714 2.65291,-3.79217 2.89231,-3.75337 0.1223,0.0199 0.37116,-0.45446 0.55306,-1.05397 0.18189,-0.59952 0.39093,-1.01289 0.46449,-0.91859 0.0736,0.0943 0.10963,-0.0773 0.0796,-0.38195 -0.0299,-0.30435 0.0763,-0.56266 0.23555,-0.57401 0.15928,-0.0113 0.41897,-0.35802 0.57711,-0.77039 0.15812,-0.41237 0.34968,-0.77982 0.42575,-0.81653 0.34444,-0.16633 1.16341,-1.29943 1.43143,-1.98051 0.31821,-0.80857 1.02343,-2.14607 2.55573,-4.84714 0.5337,-0.9408 0.98709,-1.95556 1.00751,-2.25504 0.0204,-0.29944 0.16145,-0.63408 0.31339,-0.74362 0.15194,-0.10942 0.29355,-0.45307 0.31472,-0.76346 0.0318,-0.46496 0.53281,-1.46825 0.9464,-1.8949 0.27283,-0.28142 1.31653,-2.71962 1.46423,-3.42057 0.0936,-0.44431 0.22945,-0.72569 0.30182,-0.62529 0.0724,0.1004 0.19758,-0.0914 0.27826,-0.42594 0.0807,-0.33466 0.27572,-0.79488 0.4334,-1.02273 0.15769,-0.22785 0.18198,-0.55953 0.054,-0.73707 -0.12802,-0.17754 0.0235,-0.69806 0.33681,-1.1567 0.31325,-0.45864 0.51248,-0.91305 0.44274,-1.00977 -0.0698,-0.0968 0.0363,-0.29348 0.23569,-0.43723 0.19938,-0.14371 0.54737,-0.95705 0.77332,-1.80743 0.22595,-0.85035 0.57405,-1.89152 0.77356,-2.31367 0.19955,-0.42218 0.46331,-1.21635 0.58622,-1.76486 0.12288,-0.5485 0.40698,-1.57492 0.63133,-2.28092 0.22435,-0.70601 0.38415,-1.38657 0.35516,-1.5124 -0.0297,-0.12572 0.0782,-0.23809 0.23825,-0.24948 0.16005,-0.0113 0.17964,-0.17513 0.0436,-0.36383 -0.13603,-0.18872 -0.0985,-0.45028 0.0828,-0.58113 0.18158,-0.13095 0.24685,-0.35356 0.14504,-0.49479 -0.10181,-0.14123 -0.073,-0.2386 0.0639,-0.21636 0.137,0.0222 0.33566,-0.54745 0.44142,-1.26593 0.10579,-0.71847 0.23594,-1.33776 0.28925,-1.37619 0.11267,-0.0812 0.43588,-1.22579 0.6226,-2.20486 0.0712,-0.37324 0.17269,-0.7098 0.2255,-0.74789 0.11929,-0.0862 0.92898,-4.03704 1.25707,-6.1342 0.3097,-1.9795 0.34144,-2.56967 0.22215,-4.130336 -0.0535,-0.697416 -0.0624,-1.499991 -0.0199,-1.783495 0.0423,-0.283497 -0.0329,-1.101436 -0.16707,-1.81761 -0.23818,-1.271002 -0.25919,-1.302561 -0.88389,-1.317189 -0.36942,-0.0088 -0.52576,-0.101824 -0.36986,-0.220362 0.14858,-0.112811 0.14157,-0.383609 -0.0156,-0.601501 -0.15708,-0.217895 -0.25242,-0.600694 -0.21199,-0.85066 0.0404,-0.249975 -0.001,-0.400504 -0.0928,-0.334503 -0.0917,0.06598 -0.20519,-0.303632 -0.25252,-0.82141 -0.0473,-0.517824 0.002,-1.00512 0.11023,-1.082905 0.1079,-0.07776 0.0348,-0.24715 -0.16254,-0.376337 -0.1973,-0.129211 -0.45965,-0.668198 -0.58301,-1.197752 -0.2981,-1.279455 -2.09641,-3.817409 -3.10423,-4.380775 -0.23009,-0.128625 -0.46589,-0.334911 -0.524,-0.458443 -0.28201,-0.59935 -0.78069,-0.968295 -1.45713,-1.078004 -0.64706,-0.104955 -0.73248,-0.191628 -0.65568,-0.665308 0.0768,-0.473681 -0.0148,-0.540055 -0.70352,-0.509328 -0.67867,0.03031 -0.73961,0.06958 -0.42635,0.274692 0.20104,0.131638 0.45082,0.177816 0.55515,0.102629 0.10435,-0.07517 0.24441,0.07064 0.31132,0.324202 0.10939,0.414079 0.0583,0.442369 -0.50255,0.278681 -0.60526,-0.176668 -0.60929,-0.172629 -0.13226,0.131984 0.62855,0.401428 1.50524,1.696275 1.49639,2.210176 -0.01,0.575397 0.75134,1.688321 1.02157,1.493534 0.12683,-0.09139 0.24861,0.0089 0.27064,0.222995 0.022,0.214088 0.0682,0.257391 0.10238,0.09632 0.0807,-0.378284 0.93987,-0.321238 1.23035,0.0817 0.29452,0.40855 -0.36888,1.406359 -0.91572,1.37729 -0.23073,-0.01232 -0.47214,0.104865 -0.5365,0.260126 -0.0644,0.155343 -0.24113,0.216741 -0.39289,0.136451 -0.15177,-0.08025 -0.16084,-0.03922 -0.0201,0.09135 0.14072,0.130454 0.29409,0.880935 0.34091,1.66769 0.0473,0.786714 0.13192,1.495363 0.1892,1.574709 0.0571,0.07939 -0.0279,1.202479 -0.18913,2.495839 -0.22716,1.822292 -0.39499,2.335263 -0.74565,2.27919 -0.53407,-0.08541 -0.9486,-1.782965 -0.66246,-2.712682 0.20802,-0.675742 0.16599,-1.314855 -0.22621,-3.437058 -0.39092,-2.116221 -1.24575,-4.791874 -1.5746,-4.928032 -0.14269,-0.05918 -0.15774,-0.180746 -0.0332,-0.27049 0.1244,-0.08967 0.044,-0.282274 -0.17832,-0.428004 -0.27021,-0.176928 -0.28219,-0.27363 -0.036,-0.291163 0.24491,-0.01708 0.23511,-0.113644 -0.0287,-0.286688 -0.28612,-0.187363 -0.39009,-0.15358 -0.37059,0.120468 0.0208,0.288166 -0.047,0.327455 -0.27746,0.161363 -0.21537,-0.1552 -0.26651,-0.07534 -0.17459,0.272625 0.0777,0.294242 0.17846,0.374975 0.25061,0.200784 0.20919,-0.505196 0.28599,-0.102893 0.16598,0.869496 -0.0938,0.760541 -0.2646,1.005212 -0.90485,1.296683 -0.5102,0.23228 -0.72605,0.446812 -0.61066,0.606893 0.28085,0.389567 -0.34534,0.689014 -1.10241,0.527165 -0.65833,-0.140763 -0.69037,-0.20253 -0.72351,-1.395697 -0.0191,-0.686633 -0.0949,-1.331545 -0.16795,-1.433155 -0.0733,-0.101574 -0.10875,-0.412042 -0.0793,-0.689826 0.13973,-1.307892 0.11673,-1.607042 -0.13157,-1.709802 -0.14697,-0.0609 -0.22576,-0.366347 -0.17501,-0.67891 0.0703,-0.433722 0.005,-0.55245 -0.27485,-0.501508 -0.20179,0.03695 -0.0864,-0.06609 0.25643,-0.228372 0.60297,-0.285443 0.60134,-0.295503 -0.0499,-0.306436 -0.41504,-0.007 -0.63918,0.09766 -0.58446,0.272828 0.0488,0.156282 -0.0347,0.292927 -0.18555,0.303638 -0.1509,0.01077 -0.0781,0.204661 0.16196,0.430915 0.58423,0.550779 0.58914,0.99481 0.0106,0.95533 -0.35738,-0.02428 -0.42412,0.09782 -0.28447,0.523311 0.10028,0.305337 0.0557,0.646377 -0.0989,0.757866 -0.15467,0.111527 -0.31695,0.523553 -0.36064,0.915667 -0.0437,0.392101 -0.20646,0.772857 -0.3617,0.84608 -0.15526,0.07325 -0.14451,0.295633 0.0242,0.494184 0.16827,0.198647 0.1937,0.369042 0.0564,0.378805 -0.13745,0.0098 -0.35364,0.543541 -0.48045,1.18616 -0.1268,0.642595 -0.26347,1.192082 -0.30372,1.221106 -0.0402,0.0291 -0.18456,0.58559 -0.32067,1.236813 -0.30082,1.439401 -0.66132,1.598428 -1.28149,0.565334 -0.46885,-0.780989 -0.52117,-1.943814 -0.10115,-2.24657 0.42981,-0.309851 1.17209,-4.813934 0.81753,-4.96076 -0.1339,-0.05539 -0.0145,-0.206879 0.26453,-0.336484 0.33378,-0.154782 0.42366,-0.35264 0.26213,-0.576718 -0.15336,-0.212736 -0.0877,-0.382839 0.1756,-0.452364 0.23169,-0.06181 0.3523,-0.207257 0.26777,-0.324509 -0.27472,-0.381118 -0.34659,-0.565297 -0.45506,-1.166594 -0.0981,-0.54437 -0.11009,-0.543255 -0.14063,0.01248 -0.0187,0.332503 -0.17225,0.593757 -0.34144,0.580618 -0.16918,-0.0131 -0.05,0.05376 0.26487,0.148732 0.65585,0.197777 0.41342,0.496043 -0.32832,0.403922 -0.3958,-0.04914 -0.42401,-0.02876 -0.14107,0.101708 0.19452,0.08976 0.24293,0.242967 0.10759,0.340542 -0.13535,0.09753 -0.093,0.240793 0.0941,0.318284 0.20938,0.08666 0.20059,0.150837 -0.0227,0.16672 -0.19966,0.01413 -0.63815,0.368295 -0.97443,0.786902 -0.76255,0.949201 -1.18531,0.876703 -1.99135,-0.341546 -0.56412,-0.852653 -0.55696,-0.935264 0.14805,-1.704726 0.7025,-0.766751 0.87528,-1.334167 0.54894,-1.802787 -0.0799,-0.115588 -0.15279,0.0875 -0.16112,0.450626 -0.008,0.363081 -0.1059,0.540933 -0.21683,0.395185 -0.32419,-0.426075 -1.85654,-0.232691 -2.50761,0.316422 -0.46306,0.390557 -0.74815,0.420203 -1.2556,0.130607 -0.56964,-0.325149 -0.63416,-0.487141 -0.48767,-1.224269 0.0964,-0.485046 0.0381,-0.808721 -0.1357,-0.754394 -0.41293,0.129045 -0.69309,-1.25285 -0.30999,-1.529033 0.15326,-0.110541 0.199,-0.406869 0.10166,-0.658629 -0.15909,-0.411384 -0.14736,-0.421969 0.11633,-0.104554 0.18128,0.218042 0.45344,0.218275 0.71216,4.65e-4 0.40102,-0.337657 0.15577,-0.850757 -0.26628,-0.557096 -0.11224,0.07826 -0.38468,0.152717 -0.60525,0.165742 -0.22055,0.01328 -0.45128,0.14494 -0.51268,0.29316 -0.0614,0.14824 -0.22752,0.185979 -0.36927,0.08363 -0.52095,-0.375414 -5.11676,2.614148 -6.82047,4.436727 -0.60313,0.645235 -0.75203,0.691814 -1.18455,0.370569 -0.58141,-0.431841 -0.54985,-1.617656 0.0546,-2.053455 0.21624,-0.155817 0.38368,-0.415532 0.37222,-0.577062 -0.0115,-0.161519 0.22821,-0.572069 0.53271,-0.912333 0.30448,-0.340252 0.47913,-0.721939 0.38811,-0.848195 -0.11042,-0.153188 -0.0113,-0.218943 0.3002,-0.197792 0.34097,0.02322 0.4916,-0.09652 0.56231,-0.448017 0.0682,-0.33866 0.10878,-0.372386 0.13803,-0.114689 0.0231,0.200799 0.20909,0.353182 0.41396,0.3386 0.23265,-0.01628 0.24476,-0.07942 0.0323,-0.1674 -0.43402,-0.179738 -0.0968,-0.434974 0.45734,-0.345452 0.30671,0.0497 0.38679,-0.120302 0.298,-0.632936 -0.11546,-0.666987 -0.12306,-0.668282 -0.15569,-0.02698 -0.0285,0.557448 -0.0783,0.61298 -0.28865,0.321172 -0.17284,-0.239741 -0.40706,-0.215096 -0.7307,0.07687 -0.97101,0.875916 -2.26536,0.267026 -2.73812,-1.288034 -0.3116,-1.025047 -0.17191,-1.567686 0.35747,-1.387912 0.26348,0.08948 0.27566,0.05007 0.0402,-0.130317 -0.18551,-0.142209 -0.43086,-0.153477 -0.54521,-0.02504 -0.1144,0.128442 -0.31097,0.09061 -0.43684,-0.08398 -0.14451,-0.200422 -0.37054,-0.167256 -0.61304,0.08998 -0.21127,0.224112 -0.39276,0.285771 -0.40339,0.136934 -0.0105,-0.148808 -0.40941,-0.154454 -0.88623,-0.01259 -1.09026,0.324404 -1.12722,0.353766 -0.68378,0.543972 0.27937,0.119815 0.24828,0.150995 -0.13412,0.134553 -0.27377,-0.01181 -0.99561,0.227744 -1.60425,0.531621 -0.60853,0.304172 -1.47255,0.608986 -1.92004,0.677381 -0.44747,0.06836 -1.02385,0.275865 -1.28086,0.461135 -0.32661,0.235462 -0.52843,0.204832 -0.67054,-0.101945 -0.15884,-0.343001 -0.004,-0.565515 0.71134,-1.019194 3.87781,-2.460853 4.66209,-2.94222 5.21389,-3.200159 1.14593,-0.535651 3.24703,-1.063549 3.39825,-0.85378 0.0822,0.113835 0.19584,0.09445 0.25278,-0.04307 0.057,-0.137531 0.41575,-0.213992 0.79736,-0.169837 0.38157,0.0441 0.89063,-0.06431 1.13119,-0.241235 0.24192,-0.177396 0.54636,-0.175534 0.68091,0.0043 0.1341,0.178773 0.3748,0.381167 0.53544,0.449322 0.16063,0.06823 0.59115,0.394267 0.95667,0.724676 0.56146,0.50746 0.63429,0.762042 0.46894,1.639898 -0.10763,0.571544 -0.12347,0.878349 -0.0352,0.681799 0.0883,-0.196563 0.24032,-0.246646 0.33788,-0.111289 0.0976,0.135329 0.23231,0.113467 0.29942,-0.04863 0.0679,-0.163625 0.2864,-0.07022 0.49177,0.211076 0.50344,0.688589 0.93338,0.800135 1.53649,0.398552 0.27967,-0.186235 0.66743,-0.436446 0.86171,-0.556066 0.19427,-0.119674 0.61099,-0.04757 0.92603,0.160179 0.31506,0.207685 0.77218,0.324971 1.01581,0.260623 0.52645,-0.139029 1.15061,0.615865 0.85268,1.03122 -0.16599,0.231396 -0.0728,0.357578 0.45661,0.618518 0.36588,0.18026 1.08583,0.852369 1.59993,1.493556 0.84503,1.054048 0.99133,1.136045 1.52553,0.855301 0.71996,-0.378377 1.79569,-0.20036 2.40115,0.397283 0.24687,0.24366 0.54122,0.338811 0.65415,0.211406 0.11294,-0.127439 0.3037,-0.09522 0.42392,0.07155 0.12024,0.166746 0.48755,0.310908 0.81626,0.320333 0.32875,0.0095 0.48181,-0.01333 0.34013,-0.05068 -0.14166,-0.03723 -0.21332,-0.529204 -0.1593,-1.093197 0.094,-0.980014 0.14016,-1.035195 1.04139,-1.245101 0.73529,-0.171298 0.92414,-0.296751 0.85729,-0.569682 -0.0664,-0.273677 -0.0386,-0.292645 0.12999,-0.08747 0.11857,0.144501 0.36736,0.153263 0.55275,0.01958 0.18536,-0.133593 0.51034,-0.129473 0.7221,0.0092 0.31006,0.203016 0.38012,0.168808 0.35957,-0.175556 -0.0211,-0.354461 0.012,-0.376975 0.19312,-0.13152 0.13141,0.177413 0.31767,0.145065 0.46592,-0.08122 0.17256,-0.263489 0.49467,-0.228585 1.06615,0.115469 0.75968,0.457368 0.80385,0.545602 0.61132,1.220537 -0.11415,0.400136 -0.10583,0.659848 0.0185,0.577122 0.12431,-0.08285 0.14746,0.04512 0.0515,0.284086 -0.12629,0.314172 -0.004,0.290617 0.44113,-0.08563 0.33872,-0.285757 0.68572,-0.688268 0.77114,-0.894493 0.0988,-0.238613 0.20965,-0.253095 0.3049,-0.03988 0.0905,0.202593 0.29075,0.191462 0.50661,-0.02854 0.24041,-0.244712 0.36599,-0.236448 0.3846,0.0253 0.0157,0.224957 0.0785,0.265993 0.14824,0.09747 0.0663,-0.160081 -0.11934,-0.538921 -0.41151,-0.842074 -0.34954,-0.36195 -0.49391,-0.807976 -0.4208,-1.300152 0.14889,-1.002788 0.46636,-2.175832 0.61855,-2.285555 0.0678,-0.04883 0.17206,-0.312169 0.2317,-0.585119 0.28483,-1.30342 0.41902,-1.643997 0.86101,-2.185169 0.26181,-0.320576 0.40716,-0.678393 0.32298,-0.795152 -0.20259,-0.28104 0.28477,-3.346567 0.56405,-3.547902 0.23729,-0.171059 -0.18303,-0.710002 -0.60745,-0.778827 -0.14489,-0.02351 -0.36759,-0.187177 -0.49485,-0.363716 -0.17545,-0.243381 -0.0379,-0.409188 0.57053,-0.686059 0.98228,-0.447192 1.93391,-0.368998 2.28517,0.187638 0.27505,0.435937 -0.069,2.865919 -0.46998,3.319484 -0.1276,0.14428 -0.34589,0.865701 -0.48513,1.603143 -0.13925,0.737468 -0.41025,1.383913 -0.60224,1.436584 -0.19189,0.0531 -0.29799,0.167082 -0.23554,0.25429 0.19545,0.271105 -0.0896,2.363165 -0.44012,3.239501 -0.18957,0.473923 -0.19196,0.928782 -0.006,1.050871 0.20763,0.135955 0.16909,0.330353 -0.10456,0.527618 -0.48687,0.350977 -0.41029,0.563493 0.28695,0.796576 0.38536,0.128808 0.38849,0.09485 0.0165,-0.179139 -0.32027,-0.235877 -0.0884,-0.26211 0.76731,-0.08681 0.94273,0.193196 1.18968,0.342695 1.06794,0.64655 -0.17592,0.438957 -0.40714,0.690964 -0.85701,0.934112 -0.16548,0.08944 -0.22637,0.265992 -0.13527,0.392345 0.091,0.126379 -0.0135,0.358894 -0.2325,0.516759 -0.21894,0.157894 -0.48532,0.554824 -0.59192,0.882157 -0.1066,0.327345 -0.42753,0.685495 -0.71314,0.7959 -0.38521,0.148953 -0.42016,0.250828 -0.13523,0.394621 0.21126,0.106638 0.11409,0.122082 -0.21571,0.03418 -0.55922,-0.148871 -0.57296,-0.122402 -0.20284,0.390988 0.21832,0.302877 0.44054,0.445431 0.49382,0.3168 0.096,-0.232008 1.39163,0.749742 1.55677,1.179668 0.0473,0.123208 0.32663,0.289433 0.62066,0.369356 0.44961,0.122238 0.46034,0.152929 0.0673,0.193223 -0.27805,0.02819 -0.1384,0.128296 0.34486,0.246395 0.44664,0.109192 0.65994,0.213686 0.47401,0.232216 -0.18593,0.01884 -0.23411,0.177918 -0.10705,0.354163 0.30181,0.418676 0.35693,0.363356 0.86847,-0.871921 0.23793,-0.574593 0.44577,-0.859911 0.46186,-0.634065 0.0234,0.328471 0.0882,0.290196 0.32351,-0.191224 0.16186,-0.331038 0.2464,-0.783284 0.18787,-1.004987 -0.0585,-0.22173 0.004,-0.488732 0.13866,-0.593398 0.13479,-0.104645 0.37477,-0.722963 0.53324,-1.37398 0.15846,-0.651028 0.39235,-1.191105 0.51975,-1.200175 0.12738,-0.0091 0.21898,-0.344729 0.20353,-0.745922 -0.0149,-0.401244 0.0923,-1.619586 0.23941,-2.707581 0.14811,-1.095238 0.116,-2.252056 -0.072,-2.59189 -0.28264,-0.51096 -0.18529,-0.826511 0.58385,-1.88488 0.5078,-0.699112 1.12143,-1.339081 1.36362,-1.422144 0.61143,-0.209748 1.31706,0.443623 1.20765,1.118158 -0.052,0.320711 0.0965,0.699619 0.34765,0.886033 0.24119,0.179129 0.38199,0.462199 0.3129,0.629018 -0.0748,0.180455 -0.17229,0.126649 -0.24076,-0.132757 -0.0635,-0.23981 -0.2249,-0.356962 -0.35879,-0.260435 -0.13401,0.09665 -0.16035,0.291192 -0.0585,0.432418 0.10171,0.141244 0.0922,0.241708 -0.0213,0.223288 -0.11353,-0.01846 -0.47885,1.642404 -0.81178,3.690696 -0.33292,2.048277 -0.81482,3.972753 -1.0709,4.276612 -0.25607,0.303858 -0.38964,0.783779 -0.29682,1.066499 0.093,0.282676 0.0358,0.610304 -0.12817,0.728102 -0.16333,0.117791 -0.27642,0.312158 -0.25133,0.432046 0.0254,0.119815 -0.15785,0.770849 -0.40654,1.446609 -0.37504,1.019005 -0.81699,1.665266 -2.1205,3.100741 -0.0801,0.08834 -0.0249,0.246262 0.12611,0.360996 0.4996,0.379142 0.93702,0.996182 1.29472,1.826092 0.24192,0.561446 0.70129,1.485213 1.0208,2.052835 0.31954,0.567588 0.54898,1.368786 0.50984,1.780432 -0.0425,0.446988 0.003,0.580435 0.112,0.331294 0.10361,-0.235999 0.18575,0.02899 0.18922,0.610345 0.003,0.565151 0.0911,1.145512 0.19506,1.289719 0.2133,0.295873 0.26525,1.901266 0.10563,3.265209 -0.0586,0.500222 -0.0437,0.996437 0.0328,1.10271 0.2019,0.280092 -0.33518,3.315099 -0.60336,3.409349 -0.12446,0.0438 -0.16729,0.18748 -0.0952,0.31945 0.0721,0.13202 0.17781,0.35683 0.2348,0.49969 0.057,0.14285 0.17452,0.38425 0.26123,0.53637 0.0867,0.15218 0.0589,0.26034 -0.0634,0.24078 -0.19328,-0.0314 -0.305,0.29199 -0.60031,1.73723 -0.0374,0.18337 -0.11049,0.7633 -0.16223,1.28873 -0.0517,0.5254 -0.29105,1.34401 -0.53172,1.81909 -0.2407,0.47509 -0.31065,0.91638 -0.15549,0.98064 0.15522,0.0643 0.16824,0.19896 0.0295,0.29926 -0.13921,0.10038 -0.40822,0.82108 -0.59776,1.60159 -0.18956,0.78052 -0.46979,1.50935 -0.62271,1.6196 -0.15296,0.1103 -0.24022,0.61512 -0.19396,1.12194 0.0462,0.50682 -0.0856,1.12283 -0.29299,1.36895 -0.2074,0.24611 -0.44827,0.80564 -0.53528,1.24341 -0.087,0.43774 -0.26377,0.87206 -0.39288,0.96513 -0.12911,0.0931 -0.15039,0.4847 -0.0473,0.87029 0.10312,0.38557 0.0909,0.77065 -0.0271,0.85569 -0.118,0.0851 -0.4406,0.76917 -0.71688,1.52024 -0.27629,0.75105 -0.61765,1.44868 -0.75854,1.55026 -0.14091,0.10159 -0.12868,0.2375 0.0277,0.30203 0.15587,0.0646 0.0386,0.63824 -0.26057,1.27488 -0.29919,0.63668 -0.71987,1.53245 -0.93488,1.99065 -0.21499,0.45819 -0.33688,0.89009 -0.27085,0.9598 0.066,0.0696 0.0776,0.38845 0.0258,0.70837 -0.0519,0.31991 -0.15601,0.50247 -0.23138,0.40571 -0.0752,-0.097 -0.11299,0.0702 -0.0837,0.37092 0.0296,0.30076 -0.0416,0.61535 -0.15774,0.69904 -0.1161,0.0836 -0.3204,0.6449 -0.45403,1.24713 -0.13364,0.60224 -0.44815,1.24289 -0.69891,1.42368 -0.25078,0.18078 -0.40798,0.48224 -0.34933,0.66993 0.0587,0.18766 -0.1189,0.50381 -0.39455,0.70254 -0.27565,0.19871 -0.68756,0.87194 -0.91533,1.49606 -0.2278,0.62412 -0.56485,1.24338 -0.74902,1.37614 -0.4668,0.33653 -0.91643,1.31038 -0.99762,2.1608 -0.0376,0.39435 -0.12111,0.644 -0.18541,0.55477 -0.0643,-0.0893 -0.28242,0.42127 -0.48465,1.13441 -0.20224,0.71314 -0.47423,1.37341 -0.60444,1.46729 -0.13023,0.0939 -0.44664,0.623 -0.70315,1.17586 -0.2565,0.55284 -0.57783,1.08551 -0.71405,1.18371 -0.13621,0.0982 -0.38663,0.63179 -0.55652,1.18577 -0.4154,1.35465 -1.20303,2.73723 -1.89639,3.32888 -0.3132,0.26728 -0.51367,0.56339 -0.44544,0.65804 0.0683,0.0946 -0.16814,0.38274 -0.52529,0.64022 -0.36463,0.26285 -0.62461,0.6834 -0.59292,0.95913 0.0311,0.27002 -0.032,0.55822 -0.14028,0.64041 -0.10808,0.0823 -0.46444,0.61319 -0.79171,1.17996 -0.32723,0.5668 -0.91249,1.35207 -1.30056,1.74506 -0.38809,0.39298 -0.72139,0.94604 -0.7407,1.229 -0.0193,0.28298 -0.15213,0.52281 -0.29521,0.53301 -0.14309,0.0101 -0.24958,0.16638 -0.23675,0.34705 0.0128,0.18067 -0.11893,0.33867 -0.29284,0.35103 -0.17391,0.0123 -0.39314,0.35612 -0.48718,0.76386 -0.094,0.40772 -0.18778,0.56533 -0.2084,0.35024 -0.0517,-0.54091 -0.23273,-0.35572 -0.34824,0.35643 -0.0529,0.32601 -0.31438,0.81932 -0.58114,1.09619 -0.6153,0.63863 -2.15897,2.90028 -2.96061,4.33764 -0.33882,0.60752 -0.75161,1.11427 -0.91728,1.12605 -0.16568,0.0117 -0.34547,0.29424 -0.39954,0.62769 -0.0541,0.33344 -0.22046,0.72475 -0.36976,0.86963 -0.14925,0.14491 -0.33461,0.5073 -0.41182,0.80545 -0.0772,0.29814 -0.33169,0.59259 -0.56548,0.65435 -0.23369,0.0621 -0.34398,0.22468 -0.24492,0.36211 0.0992,0.13742 0.0734,0.23253 -0.0573,0.21138 -0.13058,-0.021 -0.43058,0.34276 -0.66668,0.80879 -0.23608,0.46601 -0.57032,0.96763 -0.74274,1.11473 -0.17243,0.1471 -0.57901,0.7343 -0.9035,1.30493 -1.21859,2.14288 -2.57726,3.94733 -2.92918,3.89025 -0.1317,-0.0214 -0.37619,0.36383 -0.54333,0.85598 -0.16714,0.49213 -0.44507,0.96532 -0.61763,1.05154 -0.2985,0.14917 -0.56965,0.4962 -1.26572,1.61997 -0.17006,0.27451 -0.47094,0.69228 -0.66867,0.92836 -0.19772,0.23609 -0.90839,1.23379 -1.57927,2.21708 -0.67086,0.9833 -1.4989,2.02697 -1.84008,2.31923 -0.34117,0.2923 -1.05176,1.17024 -1.57909,1.95098 -0.52733,0.78074 -1.16915,1.50084 -1.42629,1.60025 -0.25715,0.0994 -0.48262,0.40181 -0.50106,0.67206 -0.0408,0.59856 -1.00659,1.3478 -1.26869,0.98421 -0.10378,-0.14385 -0.23427,0.10076 -0.2901,0.54361 -0.0558,0.44287 -0.24623,0.90953 -0.42308,1.03703 -0.57314,0.41318 -0.62726,0.49246 -0.76014,1.11409 -0.0721,0.33713 -0.32135,0.66319 -0.55395,0.72464 -0.23275,0.0609 -0.41282,0.25441 -0.40038,0.42889 0.0124,0.17445 -0.21059,0.39377 -0.49556,0.48736 -0.28498,0.0936 -0.45063,0.26383 -0.36806,0.37837 0.20937,0.29042 -0.44036,1.22589 -2.46187,3.54461 -0.95663,1.09728 -1.73387,2.12921 -1.72722,2.29322 0.007,0.16399 -0.14391,0.37272 -0.33459,0.46384 -0.19066,0.0912 -0.69625,0.62026 -1.1235,1.17594 -0.42727,0.55566 -0.95702,1.10725 -1.17724,1.22573 -0.2202,0.1186 -0.38957,0.36779 -0.3763,0.55401 0.0132,0.18622 -0.1043,0.34771 -0.26121,0.35887 -0.15692,0.0112 -0.70966,0.56337 -1.2283,1.22719 -0.51865,0.66378 -1.04578,1.24461 -1.17141,1.29076 -0.12562,0.0462 -0.78756,0.6654 -1.47095,1.37614 -0.68337,0.71075 -1.59946,1.63227 -2.03573,2.04784 -0.43628,0.41557 -1.15038,1.0953 -1.5869,1.51052 -0.43653,0.41523 -0.93322,0.97895 -1.1038,1.25271 -0.50918,0.81715 -2.48014,2.87437 -2.71707,2.83593 -0.12089,-0.0196 -0.2656,0.141 -0.3215,0.35691 -0.0559,0.21588 -0.67398,0.83934 -1.37343,1.38539 -0.69944,0.54606 -1.32846,1.17237 -1.3978,1.39185 -0.0694,0.21945 -0.41192,0.51276 -0.76125,0.65175 -0.34932,0.139 -0.83699,0.56137 -1.08369,0.93864 -0.58906,0.90081 -3.48266,3.81948 -4.95176,4.99468 -0.20417,0.16336 -0.3116,0.37972 -0.23868,0.48084 0.0728,0.10115 -0.0954,0.21007 -0.37416,0.24214 -0.32463,0.0374 -0.84296,0.46499 -1.44227,1.19 -0.51453,0.62247 -1.17324,1.29752 -1.46379,1.50011 -0.29063,0.20246 -1.03106,0.81924 -1.64553,1.37037 -2.22598,1.9965 -2.58292,2.2997 -4.94934,4.2041 -1.3223,1.06415 -2.46295,2.07668 -2.53474,2.25004 -0.0717,0.17334 -1.56888,1.37566 -3.32683,2.67181 -1.75798,1.29615 -3.27168,2.53852 -3.36377,2.7609 -0.0921,0.22234 -0.6506,0.73932 -1.24119,1.14886 -0.59055,0.40953 -1.02145,0.81714 -0.95746,0.9059 0.10455,0.14486 -1.07444,1.14031 -1.30597,1.10277 z m 2.61917,-3.68563 c -0.0128,-0.18036 -0.12772,-0.15358 -0.26939,0.0632 -0.27583,0.4212 -0.23186,0.62924 0.0848,0.401 0.11391,-0.0822 0.19704,-0.29083 0.18473,-0.46383 z m -24.20187,14.8511 c 0.0216,-0.53346 0.007,-0.54235 -0.12901,-0.0772 -0.0844,0.28919 -0.28742,0.51082 -0.45117,0.4925 -0.16375,-0.0184 -0.13726,0.039 0.0589,0.12766 0.46099,0.20808 0.49219,0.17559 0.52127,-0.54303 z m -7.19145,3.81856 c -0.0104,-0.14583 -0.15872,-0.16432 -0.32964,-0.041 -0.17092,0.12327 -0.20027,0.26979 -0.0652,0.32573 0.13509,0.056 0.2834,0.0744 0.32965,0.041 0.0462,-0.0333 0.0756,-0.17993 0.0652,-0.32574 z M 212.65921,76.554961 c -0.13508,-0.05599 -0.33878,-0.03454 -0.45269,0.04763 -0.1139,0.08217 -0.14759,0.231843 -0.0748,0.332711 0.0727,0.100828 0.27643,0.07949 0.45267,-0.04763 0.17626,-0.127056 0.20997,-0.276787 0.0749,-0.332705 z M 132.83074,234.33919 c -0.80002,0.25517 -0.89787,0.20947 -1.41486,-0.65962 -0.70854,-1.19118 -0.72003,-1.44843 -0.0626,-1.40357 0.2925,0.0199 0.66287,-0.0219 0.82303,-0.0929 0.16015,-0.0711 0.63438,-0.27958 1.05381,-0.46332 1.27914,-0.56033 2.38128,-1.29813 2.60778,-1.74568 0.20663,-0.40837 2.58921,-2.47322 5.58142,-4.83712 0.78192,-0.61777 1.48029,-1.26473 1.55193,-1.4377 0.0716,-0.17295 0.56463,-0.70608 1.09556,-1.18464 0.53092,-0.47859 1.20907,-1.19289 1.50702,-1.58737 0.47895,-0.63414 1.10248,-1.14497 2.69889,-2.21116 0.24837,-0.16588 0.70305,-0.57907 1.01039,-0.91832 0.30736,-0.33919 1.27022,-1.19583 2.1397,-1.90361 0.86949,-0.70779 1.78122,-1.53097 2.02608,-1.82927 0.24484,-0.29833 0.53118,-0.5797 0.63628,-0.62528 0.10506,-0.0456 0.12863,-0.16957 0.0523,-0.27549 -0.23164,-0.32136 1.65716,-2.26016 3.84459,-3.94645 0.41389,-0.31902 0.7552,-0.6818 0.75851,-0.80614 0.003,-0.12432 0.53111,-0.64488 1.17291,-1.15682 0.6418,-0.51192 1.26157,-1.11266 1.37729,-1.33491 0.45679,-0.87727 1.32548,-1.76665 2.59796,-2.65988 0.73295,-0.51439 1.32916,-1.07459 1.32502,-1.24475 -0.004,-0.17019 0.35766,-0.60784 0.80402,-0.97259 0.93531,-0.7643 1.41543,-1.29896 1.47031,-1.63725 0.0211,-0.13053 0.2158,-0.28421 0.4325,-0.34143 0.21667,-0.0573 0.30653,-0.22537 0.19984,-0.37337 -0.11595,-0.16092 0.0163,-0.35068 0.32876,-0.47143 0.28762,-0.11116 0.51564,-0.30481 0.50668,-0.43041 -0.009,-0.1255 0.32689,-0.44121 0.74628,-0.70153 0.41937,-0.26031 0.75385,-0.59524 0.74322,-0.74435 -0.0106,-0.14908 0.20216,-0.48195 0.47279,-0.73969 0.27065,-0.25777 0.54938,-0.60998 0.61938,-0.78272 0.11197,-0.27632 1.90432,-2.11429 2.48902,-2.55235 0.1194,-0.0895 0.2211,-0.26165 0.22592,-0.38257 0.005,-0.1209 0.45292,-0.64074 0.99575,-1.15519 0.54287,-0.51442 1.0318,-1.10816 1.08652,-1.31939 0.0547,-0.21122 0.21163,-0.36587 0.3487,-0.34364 0.13707,0.0222 0.17386,-0.0642 0.0818,-0.19187 -0.26764,-0.37127 1.58067,-2.27876 2.22029,-2.29137 0.48351,-0.009 1.42134,-1.47263 1.16863,-1.82316 -0.11176,-0.15505 -0.0946,-0.36014 0.038,-0.45575 0.13263,-0.0956 0.38285,-0.59109 0.55604,-1.10104 0.1732,-0.50997 0.50925,-0.97852 0.74678,-1.04125 0.23745,-0.063 0.55468,-0.36533 0.70486,-0.67242 0.24509,-0.50123 0.50648,-0.79473 1.91226,-2.14716 0.21827,-0.21002 0.52917,-0.65239 0.69086,-0.98306 0.16169,-0.33068 0.59179,-0.81594 0.95576,-1.07833 0.36396,-0.26238 0.65336,-0.59528 0.64306,-0.73973 -0.0306,-0.4384 1.7957,-3.81284 2.04255,-3.77281 0.1266,0.0206 0.27035,-0.21019 0.31939,-0.51277 0.0491,-0.30257 0.32083,-0.73589 0.60391,-0.96297 0.69637,-0.55853 1.59231,-1.62593 2.59628,-3.09305 0.13437,-0.19636 0.32994,-0.39488 0.43458,-0.4411 0.10466,-0.0463 0.13417,-0.16187 0.0656,-0.25699 -0.0685,-0.095 0.0661,-0.3105 0.29937,-0.47862 0.23322,-0.16812 0.43202,-0.19324 0.44181,-0.0558 0.01,0.13749 0.17219,0.13866 0.3609,0.003 0.18874,-0.13604 0.24369,-0.38536 0.12211,-0.55398 -0.30466,-0.42261 0.0798,-0.92953 1.45947,-1.9241 0.77433,-0.55822 1.20968,-1.05109 1.27293,-1.44115 0.0529,-0.32603 0.33356,-0.83895 0.62373,-1.13981 0.2902,-0.30085 0.60435,-0.85815 0.69812,-1.23845 0.25111,-1.0183 0.96488,-2.43636 1.20661,-2.39715 0.11552,0.0187 0.34149,-0.23466 0.50209,-0.56309 0.16061,-0.32846 0.65728,-0.92 1.10372,-1.31455 0.44644,-0.39455 0.87715,-0.87767 0.95715,-1.07361 0.0799,-0.19594 0.23172,-0.44536 0.33715,-0.55428 0.10545,-0.10899 0.39957,-0.53608 0.65359,-0.94928 0.25402,-0.41318 0.70102,-0.89004 0.99333,-1.05967 0.30344,-0.17615 0.48143,-0.49795 0.41481,-0.75017 -0.0642,-0.24294 0.009,-0.53243 0.16299,-0.64332 0.15381,-0.1109 0.29467,-0.42181 0.31304,-0.69098 0.0183,-0.26916 0.3081,-0.7802 0.64384,-1.13559 1.00009,-1.05857 1.14037,-1.23511 1.66047,-2.0895 0.27372,-0.44965 0.44193,-0.89488 0.3738,-0.98941 -0.0681,-0.0945 0.0212,-0.27646 0.19861,-0.40432 0.17737,-0.12787 0.57417,-0.86075 0.88175,-1.62859 0.30759,-0.76786 0.68838,-1.4053 0.84619,-1.41654 0.15783,-0.0112 0.36593,-0.61753 0.46247,-1.34732 0.0966,-0.72981 0.33075,-1.43882 0.52046,-1.57557 0.18969,-0.13682 0.27352,-0.3477 0.18625,-0.46876 -0.0872,-0.12107 -0.0688,-0.2521 0.041,-0.2912 0.41192,-0.14679 1.18354,-1.55029 1.51902,-2.76307 0.19113,-0.69094 0.65005,-1.57413 1.01979,-1.96257 0.36975,-0.38845 0.85996,-1.11845 1.08937,-1.62223 0.22942,-0.50378 0.70109,-1.29766 1.04816,-1.76417 0.34709,-0.46651 0.73267,-1.36307 0.85686,-1.99233 0.12415,-0.62928 0.38866,-1.26147 0.58775,-1.40486 0.19909,-0.14343 0.84612,-1.1551 1.43784,-2.2482 0.5917,-1.0931 1.3528,-2.49063 1.69129,-3.10561 0.33849,-0.61499 0.55398,-1.20343 0.47885,-1.30765 -0.0751,-0.10425 0.0118,-0.2966 0.19352,-0.42752 0.18157,-0.13094 0.25452,-0.34289 0.16211,-0.47108 -0.0924,-0.12819 -0.0517,-0.24137 0.0904,-0.25148 0.14214,-0.0101 0.37637,-0.46817 0.52049,-1.01788 0.14413,-0.54973 0.32587,-1.22412 0.4039,-1.49868 0.0781,-0.27456 0.21638,-0.83289 0.30746,-1.24079 0.0911,-0.40787 0.37059,-0.95902 0.62111,-1.22476 0.25053,-0.26574 0.41674,-0.60724 0.36936,-0.75886 -0.0475,-0.15161 0.0241,-0.35517 0.1588,-0.45227 0.40001,-0.2884 1.09949,-2.52088 0.88364,-2.82032 -0.10952,-0.15197 0.073,-0.7052 0.40575,-1.22938 0.60758,-0.9572 1.91882,-2.04171 2.12415,-1.75688 0.1772,0.24581 -0.14165,1.34343 -0.54349,1.87109 -0.2039,0.26774 -0.32192,0.67164 -0.26224,0.89756 0.0594,0.226 -0.0242,0.50642 -0.18636,0.62333 -0.16213,0.11693 -0.29972,0.81998 -0.30572,1.56238 -0.007,0.89632 -0.16258,1.41218 -0.46245,1.53536 -0.24839,0.10199 -0.38675,0.27549 -0.30776,0.38505 0.0791,0.10973 -0.005,0.3066 -0.18632,0.4375 -0.18159,0.13095 -0.38655,0.58569 -0.45547,1.01066 -0.0689,0.42494 -0.30307,1.04227 -0.52032,1.37182 -0.21726,0.32953 -0.33136,0.91792 -0.25357,1.30749 0.0778,0.38958 -0.15825,1.26012 -0.52456,1.93452 -1.43177,2.63612 -1.5867,2.96483 -1.47214,3.12375 0.19221,0.2666 -0.6352,1.70993 -1.43618,2.50532 -0.4081,0.40526 -0.73288,0.86923 -0.72173,1.03103 0.0112,0.16183 -0.17453,0.50088 -0.41262,0.75343 -0.23813,0.25253 -0.58415,0.9577 -0.76901,1.56701 -0.18486,0.60929 -0.38639,1.03809 -0.44781,0.95288 -0.0614,-0.0853 -0.14309,0.16689 -0.18143,0.56029 -0.0384,0.39337 -0.60879,1.37677 -1.26764,2.18534 -0.65886,0.80857 -1.13291,1.56033 -1.05344,1.67055 0.0795,0.11024 0.001,0.21062 -0.17366,0.22307 -0.17499,0.0124 -0.2569,0.10755 -0.18202,0.21149 0.0748,0.10393 -0.13857,0.59075 -0.47432,1.08195 -0.74039,1.08312 -1.53039,3.09682 -1.3261,3.3802 0.0815,0.11312 -0.0704,0.27748 -0.33765,0.36525 -0.304,0.0998 -0.76137,0.86977 -1.22153,2.05635 -0.4046,1.04325 -0.82913,1.88163 -0.94342,1.86309 -0.11423,-0.0185 -0.22386,0.34905 -0.24347,0.81686 -0.0197,0.46782 -0.14135,0.92676 -0.27054,1.01988 -0.1292,0.0931 -0.23664,0.42833 -0.23877,0.74486 -0.003,0.48469 -0.0925,0.56947 -0.56546,0.5372 -0.47323,-0.0323 -0.54239,0.0344 -0.43967,0.42319 0.0782,0.29549 -0.0575,0.52037 -0.37681,0.62523 -0.27425,0.09 -0.63489,0.45244 -0.80102,0.8058 -0.16629,0.35312 -0.39181,0.67455 -0.50114,0.71429 -0.10931,0.0398 -0.12884,0.16927 -0.0434,0.28787 0.21325,0.29577 -0.87885,2.36735 -1.38633,2.62971 -0.22617,0.11686 -0.61556,0.62646 -0.86537,1.13231 -0.24983,0.50584 -0.64491,0.97007 -0.87794,1.03162 -0.49737,0.13135 -1.63962,1.67009 -2.27036,3.05841 -0.24407,0.53722 -0.7514,1.38521 -1.12739,1.8844 -0.37599,0.49918 -0.72753,1.05547 -0.78122,1.23619 -0.1642,0.55277 -2.22653,3.29515 -3.07208,4.08508 -0.43851,0.40968 -1.00474,1.12176 -1.25824,1.58239 -0.25351,0.46063 -0.5732,0.95897 -0.71043,1.10742 -0.13719,0.1485 -0.44593,0.58519 -0.68603,0.97051 -0.24009,0.38532 -0.63165,0.84125 -0.87014,1.01316 -0.23849,0.17194 -0.55272,0.60978 -0.69833,0.97302 -0.14561,0.36322 -0.63854,1.03335 -1.09543,1.48916 -0.45688,0.45582 -0.87163,1.08105 -0.92163,1.3894 -0.05,0.30835 -0.13995,0.49266 -0.19983,0.40957 -0.0598,-0.0831 -0.23775,0.18484 -0.39518,0.59545 -0.15744,0.4106 -0.46578,0.87597 -0.6852,1.03415 -0.21942,0.15823 -0.49908,0.56061 -0.62141,0.89427 -0.26496,0.72266 -1.6971,2.53858 -2.19365,2.78152 -0.19295,0.0945 -0.54686,0.48759 -0.78637,0.87372 -0.23951,0.38613 -0.57175,0.80031 -0.7383,0.92037 -0.16657,0.12001 -0.29359,0.34803 -0.28231,0.50659 0.0113,0.15856 -0.21479,0.37924 -0.50239,0.49042 -0.2923,0.11286 -0.44478,0.31051 -0.34574,0.44788 0.0975,0.13518 0.0897,0.28091 -0.0174,0.32389 -0.10701,0.0429 -0.4577,0.52154 -0.77931,1.06351 -0.32162,0.54199 -0.70142,1.06952 -0.84401,1.1723 -0.14259,0.1027 -0.28953,0.34323 -0.32655,0.53431 -0.0371,0.19107 -0.49314,0.73658 -1.0136,1.21225 -0.52047,0.47567 -1.07101,1.19014 -1.22347,1.58772 -0.15242,0.39757 -0.38242,0.7058 -0.51108,0.68492 -0.12866,-0.0209 -0.42176,0.41569 -0.65134,0.97011 -0.22958,0.55442 -0.67701,1.19518 -0.99427,1.42389 -0.31726,0.22871 -1.15681,1.12735 -1.86569,1.99697 -0.70886,0.86963 -2.04654,2.30482 -2.97262,3.18927 -0.92608,0.88447 -1.80525,1.85721 -1.95371,2.16162 -0.14848,0.30443 -0.54967,0.79184 -0.89156,1.08315 -1.05719,0.90077 -1.5908,1.47668 -1.88294,2.0322 -0.15446,0.2937 -1.03852,1.04889 -1.96459,1.67819 -0.92608,0.62927 -1.7376,1.33931 -1.80342,1.5778 -0.0835,0.3026 -0.25061,0.41239 -0.55297,0.36337 -0.3252,-0.0527 -0.46347,0.0708 -0.55426,0.49564 -0.11314,0.52925 -0.3683,0.84717 -1.8582,2.31541 -0.32267,0.31799 -0.97965,0.97254 -1.45996,1.45459 -0.48033,0.48208 -1.00758,1.00342 -1.17166,1.15859 -0.16407,0.15518 -0.4741,0.56345 -0.68891,0.90732 -0.42228,0.67599 -1.84403,2.12123 -3.18201,3.2346 -0.45993,0.38272 -1.12949,1.12426 -1.48791,1.64782 -0.3681,0.53775 -0.89385,1.01976 -1.20829,1.10777 -0.30616,0.0857 -0.61348,0.28497 -0.68295,0.44293 -0.21911,0.49811 -2.11801,1.89696 -2.41062,1.7758 -0.15396,-0.0637 -0.37898,-0.0445 -0.50005,0.0426 -0.12107,0.0872 -0.10286,0.2072 0.0403,0.26654 0.40692,0.16851 -1.61935,2.97875 -2.58044,3.57884 -0.63854,0.3987 -1.42635,1.01726 -2.7765,2.18024 -0.7377,0.63542 -1.82289,1.53113 -2.41154,1.99052 -0.58862,0.45942 -1.07002,0.97847 -1.06972,1.15356 2e-4,0.17508 -0.75641,0.90011 -1.68159,1.61115 -0.92517,0.71107 -2.03897,1.59955 -2.47505,1.97444 -0.43612,0.37489 -1.17965,0.80498 -1.65233,0.95579 z m -42.701013,22.095 c -0.138387,-0.0906 -0.892828,0.28664 -1.676472,0.83835 -0.783624,0.55173 -1.647869,0.98787 -1.92049,0.96928 -0.2726,-0.0185 -0.511289,0.0625 -0.530362,0.18027 -0.01909,0.11766 -0.448514,0.27543 -0.954219,0.35052 -0.505731,0.0751 -1.215734,0.34996 -1.577749,0.61102 -0.362024,0.26098 -0.799874,0.41586 -0.973005,0.34414 -0.17313,-0.0717 -0.41773,0.0268 -0.543525,0.21897 -0.125801,0.19212 -0.373886,0.25424 -0.551299,0.13807 -0.192433,-0.12603 -0.594287,0.0137 -0.996078,0.34637 -0.370426,0.30667 -1.541583,0.81237 -2.602579,1.12376 -1.060972,0.31143 -2.111098,0.70339 -2.333586,0.8711 -0.22262,0.16753 -0.713434,0.32184 -1.091005,0.34248 -0.377567,0.0206 -1.125711,0.26343 -1.662524,0.53954 -0.536836,0.27608 -1.155837,0.56576 -1.37557,0.64374 -0.219735,0.078 -0.715364,0.2959 -1.10141,0.48428 -0.386038,0.18839 -0.933271,0.32674 -1.216067,0.30748 -0.28281,-0.0193 -0.798305,0.13485 -1.145585,0.34258 -0.347268,0.20772 -0.812054,0.44023 -1.032824,0.51677 -0.220783,0.0765 -0.757309,0.27179 -1.192279,0.43401 -0.844797,0.31497 -3.154228,0.68465 -3.941986,0.6308 -0.26215,-0.0179 -0.604907,-0.21043 -0.761658,-0.42787 -0.156765,-0.21743 -0.876792,-0.47014 -1.600074,-0.56158 -2.586677,-0.32693 -3.166053,-1.1454 -1.017949,-1.43814 1.55052,-0.21129 3.822879,-0.0408 4.072549,0.3055 0.09506,0.13189 0.217937,0.13097 0.273009,-0.002 0.05508,-0.133 0.590294,-0.26432 1.189348,-0.29174 2.326123,-0.10674 2.734802,-0.15945 2.829018,-0.36502 0.05365,-0.11696 0.181837,-0.0957 0.284939,0.0473 0.139998,0.1942 0.217887,0.14261 0.307614,-0.20381 0.09,-0.34752 0.407894,-0.5483 1.267239,-0.80046 0.630891,-0.18512 1.198029,-0.36745 1.260317,-0.40505 0.06221,-0.0378 0.143956,-0.0781 0.1815,-0.0897 0.179314,-0.0561 1.378316,-0.67211 2.013581,-1.03464 0.391013,-0.22315 1.147548,-0.46829 1.68116,-0.54476 0.533611,-0.0765 1.117247,-0.24505 1.296965,-0.37457 0.179685,-0.12962 0.687934,-0.32229 1.12938,-0.4283 0.894872,-0.21487 0.833139,-0.19267 2.596207,-0.93364 0.700172,-0.29425 1.50149,-0.51941 1.780723,-0.50032 0.279205,0.019 0.825064,-0.17245 1.213347,-0.42378 0.388117,-0.2521 1.002606,-0.56845 1.365558,-0.70294 0.362939,-0.1345 1.190693,-0.49944 1.839453,-0.81096 0.648746,-0.31154 1.319756,-0.57637 1.491115,-0.58858 0.171357,-0.0122 0.646039,-0.20438 1.054845,-0.42699 1.43343,-0.78071 2.238187,-1.04885 2.414396,-0.80443 0.124273,0.17239 0.199977,0.10982 0.251517,-0.20786 0.07805,-0.4813 1.189213,-1.39624 1.934796,-1.59314 0.530927,-0.14021 1.486671,1.05201 1.101888,1.37453 -1.51899,1.27315 -2.825614,2.1349 -3.032088,1.99972 z m 24.895163,-30.18366 c -0.27957,0.0309 -1.13894,0.50909 -1.90971,1.0627 -1.29667,0.93124 -3.97435,2.69702 -4.67231,3.08097 -0.42619,0.23445 -0.68379,-0.22715 -0.28656,-0.5135 0.18156,-0.13095 0.25519,-0.34198 0.16359,-0.46904 -0.10611,-0.14715 0.0128,-0.25163 0.32756,-0.28782 0.2998,-0.0344 0.87032,-0.47472 1.45069,-1.1195 0.52611,-0.58448 1.7214,-1.56767 2.65621,-2.18484 1.64862,-1.08847 6.00484,-4.16608 7.09155,-5.0101 0.29482,-0.22898 1.1811,-0.80698 1.96947,-1.28447 1.18357,-0.71678 1.58036,-1.11896 2.2763,-2.30733 1.02815,-1.75561 1.52045,-2.13915 2.27322,-1.77108 0.43164,0.21107 0.62801,0.49435 0.77546,1.11874 0.17872,0.75685 0.14574,0.81926 -0.34872,0.65829 -0.60791,-0.19796 -2.87756,1.1595 -3.07549,1.83941 -0.14483,0.4976 -2.94639,3.01447 -3.22637,2.89853 -0.11734,-0.0486 -0.62671,0.4144 -1.13201,1.02884 -0.58972,0.71706 -1.10571,1.14223 -1.44072,1.18711 -0.28705,0.0385 -0.53659,0.1293 -0.5545,0.20173 -0.0931,0.377 -1.89934,1.8229 -2.33767,1.8713 z m 21.28266,-18.11838 c -0.59631,-0.004 -0.61448,-0.0355 -0.48421,-0.83871 0.13881,-0.85601 0.9239,-1.37716 1.66296,-1.10392 0.24911,0.0921 0.33926,0.0282 0.33179,-0.23568 -0.005,-0.19918 0.27742,-0.58955 0.62888,-0.86754 0.79154,-0.626 1.17031,-1.02347 1.333,-1.39877 0.24839,-0.57312 1.29144,-0.99238 1.64397,-0.66085 0.26707,0.25115 0.21606,0.40533 -0.21038,0.63613 -0.30957,0.16755 -0.63043,0.46934 -0.71304,0.67069 -0.25337,0.61755 -2.09676,2.73827 -2.85591,3.28553 -0.39465,0.2845 -0.99634,0.51538 -1.33709,0.51308 z m 7.38836,-6.90016 c -0.51148,0.12596 -0.51327,0.098 -0.018,-0.28016 0.30256,-0.23103 0.57877,-0.57863 0.61382,-0.77242 0.0942,-0.52067 1.35361,-1.73546 3.56802,-3.44166 1.08044,-0.83242 2.08505,-1.76028 2.23251,-2.06186 0.14746,-0.30158 0.35987,-0.53344 0.47197,-0.51527 0.11212,0.0181 0.56198,-0.61579 0.99966,-1.40883 0.43767,-0.79305 1.21637,-1.97686 1.7304,-2.63067 0.51402,-0.65383 1.1538,-1.57393 1.4217,-2.04468 0.26791,-0.47076 0.81691,-1.17072 1.21999,-1.55549 0.4031,-0.38477 0.91446,-0.96968 1.13636,-1.29984 0.22191,-0.33015 1.0989,-1.16903 1.94889,-1.86417 0.85,-0.69513 1.60233,-1.48348 1.67183,-1.75189 0.14419,-0.55664 0.47186,-0.5697 0.9922,-0.0396 0.54795,0.55827 0.21946,1.27149 -1.09758,2.38307 -0.65798,0.55529 -1.42806,1.46333 -1.71135,2.01784 -0.29864,0.58455 -0.63278,0.95943 -0.79523,0.89217 -0.35701,-0.14784 -1.02702,0.50194 -1.12212,1.08823 -0.0401,0.24716 -0.3376,0.64022 -0.66116,0.87349 -0.32356,0.23324 -0.89927,0.95519 -1.27934,1.60433 -0.38008,0.64912 -0.74602,1.21282 -0.8132,1.25265 -0.0673,0.0397 -0.44506,0.7198 -0.83975,1.51101 -0.48826,0.97882 -1.09346,1.73283 -1.89359,2.35918 -0.64677,0.50635 -2.33195,1.84955 -3.74482,2.98494 -1.83477,1.47444 -2.66552,2.02429 -2.90721,1.92422 -0.21375,-0.0885 -0.37844,0.003 -0.44713,0.24769 -0.0599,0.2133 -0.36439,0.45076 -0.67686,0.52769 z m -13.20608,-3.14603 c -0.86304,-0.88944 -0.81226,-1.35358 0.16244,-1.48419 1.09929,-0.14737 1.71651,0.89371 0.94665,1.59668 -0.4539,0.41452 -0.6134,0.39835 -1.10909,-0.11249 z m 31.88915,-32.12957 c -0.18929,-0.29265 -0.19021,-0.61551 -0.002,-0.75122 0.18158,-0.13095 0.52244,-0.0381 0.75747,0.20651 0.31673,0.32944 0.31722,0.5239 0.002,0.75122 -0.30186,0.21762 -0.5219,0.15756 -0.75747,-0.20651 z M 39.396305,253.71995 c -0.36018,-0.14916 -0.519875,-1.91172 -0.213541,-2.35664 0.390583,-0.56725 1.043711,-2.22257 1.212898,-3.07401 0.08501,-0.42782 0.335317,-0.90815 0.556239,-1.0674 0.441191,-0.31807 0.987731,-1.35673 0.992498,-1.88618 0.0017,-0.18517 0.06685,-0.25136 0.144841,-0.14708 0.07785,0.1044 0.196265,-0.0208 0.262833,-0.27768 0.06657,-0.257 0.383581,-0.60023 0.704456,-0.76272 0.358907,-0.18169 0.67872,-0.66797 0.831051,-1.26346 0.136187,-0.53242 0.388583,-1.06965 0.560871,-1.19387 0.172308,-0.12414 0.232927,-0.33724 0.134751,-0.47344 -0.114355,-0.15862 0.09748,-0.37325 0.589509,-0.59724 0.470734,-0.21432 0.656966,-0.39563 0.481129,-0.46844 -0.162082,-0.0671 -0.09713,-0.16894 0.149183,-0.23397 0.247303,-0.0654 0.352237,-0.23147 0.242423,-0.3838 -0.124356,-0.17249 0.06426,-0.40253 0.527151,-0.64286 0.423695,-0.21998 0.684244,-0.51267 0.632135,-0.71 -0.07624,-0.28874 0.354034,-0.86348 1.63893,-2.18916 0.158237,-0.16327 0.536365,-0.57828 0.84028,-0.92228 0.303903,-0.34398 0.637124,-0.71693 0.740467,-0.82875 0.103365,-0.11176 0.315449,-0.47224 0.471343,-0.80092 0.155891,-0.32868 0.620031,-0.83319 1.03142,-1.12112 0.766686,-0.53664 1.500182,-1.2825 1.674036,-1.70229 0.106568,-0.25736 1.237509,-1.34708 2.985396,-2.87657 0.61304,-0.53644 1.163575,-1.12989 1.223396,-1.3188 0.151802,-0.47927 1.001779,-1.12291 1.312802,-0.99412 0.142012,0.0588 0.484758,-0.25282 0.761642,-0.69252 0.276887,-0.4397 0.866532,-1.02652 1.310335,-1.30405 0.443786,-0.27755 0.854424,-0.64748 0.912524,-0.82207 0.05809,-0.17461 0.937914,-0.79952 1.95518,-1.38863 1.857564,-1.07584 3.424617,-2.28031 4.662115,-3.58338 0.776221,-0.81736 6.013683,-4.69972 7.084659,-5.25163 0.402385,-0.20738 0.88058,-0.3792 1.062641,-0.38186 0.182043,-0.003 0.68967,-0.29026 1.128032,-0.63911 0.581339,-0.46266 0.860995,-0.54557 1.033401,-0.30646 0.166077,0.23037 0.233584,0.12208 0.226974,-0.36411 -0.0087,-0.64236 0.164907,-0.80952 2.418788,-2.32846 1.335521,-0.90003 2.954472,-1.95034 3.597689,-2.33403 1.438144,-0.85788 2.956553,-1.85111 3.068485,-2.00718 0.353383,-0.49273 1.617321,-1.3463 1.970397,-1.33066 0.505057,0.0224 1.747309,-0.81574 2.118208,-1.42909 0.140309,-0.23201 0.503297,-0.45926 0.806651,-0.50496 0.303349,-0.0457 1.393522,-0.74627 2.422603,-1.55678 1.414216,-1.11385 2.053368,-1.48166 2.617439,-1.50694 0.599106,-0.0267 1.354148,-0.49352 3.826465,-2.3656 2.88439,-2.18411 3.12006,-2.31839 3.7091,-2.11321 0.51311,0.17872 0.69172,0.11091 0.96939,-0.36795 0.28124,-0.48501 2.61848,-2.03973 3.25439,-2.16477 0.0919,-0.0177 0.16864,-0.29483 0.17079,-0.61503 0.004,-0.53979 0.085,-0.60238 1.11662,-0.85922 0.73891,-0.18395 1.49173,-0.60359 2.24104,-1.24915 2.21014,-1.90412 11.38403,-8.56659 11.89811,-8.6409 0.37801,-0.0546 0.55763,-0.28821 0.64742,-0.84184 0.0683,-0.42143 0.19565,-0.66718 0.28293,-0.54612 0.0872,0.12106 0.21954,0.14795 0.29393,0.0598 0.22383,-0.26524 2.33581,-1.2294 2.85552,-1.30359 0.27274,-0.0388 0.5094,-0.22396 0.54176,-0.42359 0.0877,-0.54076 3.11689,-3.17594 3.56689,-3.10295 0.442,0.0717 1.1547,-0.25319 0.97469,-0.44321 -0.39797,-0.42133 -0.30068,-0.66604 0.46361,-1.16595 1.68034,-1.09905 3.09349,-2.13046 4.21902,-3.07929 0.62933,-0.53051 1.54219,-1.29961 2.02858,-1.7091 0.48639,-0.40946 0.83613,-0.81164 0.77721,-0.89374 -0.13772,-0.19174 0.99837,-0.80931 1.95805,-1.06435 0.52996,-0.14082 0.79123,-0.34597 0.91156,-0.71569 0.17518,-0.53822 3.6165,-3.10122 4.22182,-3.14429 0.17945,-0.0127 0.37065,-0.29703 0.42494,-0.63164 0.0542,-0.33462 0.26967,-0.65356 0.47869,-0.70875 0.20891,-0.0556 0.40466,-0.24824 0.43477,-0.42893 0.0301,-0.18068 0.68572,-0.81042 1.45691,-1.39939 0.77118,-0.58896 1.52641,-1.37414 1.67832,-1.74481 0.1519,-0.37067 0.37875,-0.68234 0.50413,-0.69259 0.3705,-0.0302 4.06665,-3.34294 4.18448,-3.75026 0.11661,-0.40313 1.73939,-2.03432 3.15361,-3.17 0.48146,-0.38663 0.95028,-0.88463 1.04182,-1.10667 0.0915,-0.22204 0.35652,-0.55763 0.58884,-0.74575 0.23231,-0.1881 0.53857,-0.54167 0.68055,-0.78567 0.14202,-0.244 0.64515,-0.74541 1.11813,-1.11422 0.47295,-0.36882 0.8184,-0.72936 0.76765,-0.80122 -0.13888,-0.1966 0.56635,-1.34338 0.94613,-1.53841 0.18277,-0.0938 0.51185,-0.18264 0.73132,-0.19713 0.2484,-0.0164 0.31457,-0.14364 0.17535,-0.33672 -0.14974,-0.20765 0.25005,-0.84215 1.20894,-1.9188 0.78795,-0.8847 1.59387,-1.86446 1.79094,-2.17727 0.1971,-0.31277 0.53963,-0.6994 0.76123,-0.85913 0.22159,-0.15972 0.41794,-0.51133 0.43637,-0.78131 0.0185,-0.26998 0.34588,-0.83304 0.72771,-1.25124 0.85474,-0.93621 0.56617,-0.53868 2.60327,-3.58636 0.61559,-0.92097 1.37602,-1.76802 1.73893,-1.93699 0.46007,-0.2142 0.59675,-0.42492 0.47687,-0.73507 -0.10573,-0.27364 0.17881,-0.83596 0.76768,-1.517 0.51465,-0.5952 0.92506,-1.26325 0.91201,-1.48456 -0.0134,-0.22128 0.0401,-0.31706 0.11805,-0.21279 0.078,0.10429 0.19726,-0.0244 0.26502,-0.28605 0.12064,-0.46581 1.04181,-1.50651 1.82094,-2.05725 0.2158,-0.15275 0.28087,-0.32371 0.1444,-0.38022 -0.13651,-0.0565 -0.0264,-0.42037 0.24599,-0.80868 0.2718,-0.38824 0.5276,-0.6595 0.56847,-0.60282 0.0408,0.0566 0.33635,-0.42077 0.65665,-1.06101 0.3203,-0.64024 0.64515,-1.21615 0.7219,-1.27979 0.0767,-0.0636 0.1603,-0.24357 0.18563,-0.3998 0.0254,-0.15624 0.47527,-0.59347 0.99983,-0.97164 0.52457,-0.37816 0.88444,-0.7837 0.79974,-0.9012 -0.0847,-0.1175 0.19242,-0.82921 0.61584,-1.58158 0.99714,-1.77173 1.5186,-2.46395 2.64921,-3.51673 0.13759,-0.12812 0.19651,-0.30741 0.13088,-0.39842 -0.0656,-0.091 0.39504,-0.86133 1.02367,-1.71184 0.62863,-0.8505 1.25062,-1.71018 1.38221,-1.91043 0.13161,-0.20024 0.35193,-0.48634 0.4896,-0.63579 0.1377,-0.14944 0.25844,-0.50393 0.26832,-0.78774 0.01,-0.28382 0.3813,-0.95158 0.82538,-1.48393 0.44408,-0.53232 0.93447,-1.28994 1.08975,-1.68356 0.27794,-0.70452 0.28697,-0.70409 0.5782,0.0278 0.16277,0.40892 0.27931,0.75577 0.25897,0.77076 -0.0203,0.0147 -0.1445,0.2954 -0.27613,0.6232 -0.13163,0.32778 -0.8025,1.67591 -1.49085,2.99582 -0.68831,1.31992 -1.30881,2.66791 -1.37885,2.99556 -0.07,0.32763 -0.28705,0.7108 -0.48219,0.8515 -0.19517,0.14075 -0.34483,0.39681 -0.33256,0.56909 0.028,0.39877 -1.06763,1.09938 -1.70502,1.08999 -0.38666,-0.006 -0.39972,0.0502 -0.0639,0.27395 0.31301,0.20849 0.30955,0.36218 -0.0135,0.59501 -0.23949,0.17264 -0.46225,0.63427 -0.49501,1.02582 -0.0328,0.39154 -0.14273,0.77184 -0.24437,0.84512 -0.10168,0.0734 -0.55246,0.79938 -1.00182,1.61357 -0.51632,0.93553 -0.91111,1.41248 -1.07277,1.29598 -0.15414,-0.11107 -0.3019,0.10007 -0.37185,0.53129 -0.0638,0.39359 -0.34708,0.82279 -0.62943,0.95379 -0.28453,0.13198 -0.43053,0.35626 -0.32752,0.50306 0.13438,0.19155 0.0809,0.22294 -0.1928,0.11346 -0.27513,-0.1101 -0.3505,0.0585 -0.27567,0.61683 0.0788,0.58784 -0.0713,0.89401 -0.63895,1.3032 -0.81368,0.58659 -1.94219,2.5447 -1.67787,2.91133 0.0971,0.13485 -0.0724,0.30878 -0.40864,0.4192 -0.34405,0.11293 -0.46044,0.23609 -0.28995,0.3067 0.16093,0.0667 0.0272,0.26373 -0.30679,0.45299 -0.3254,0.18422 -0.7845,0.70246 -1.02026,1.15153 -0.23575,0.44907 -0.77621,1.14548 -1.20099,1.54756 -0.42478,0.40208 -0.84301,1.08672 -0.92939,1.52141 -0.0892,0.44888 -0.50919,1.08438 -0.9721,1.47093 -0.94435,0.78852 -2.48761,2.84666 -2.457,3.27673 0.0115,0.16161 -0.21025,0.46048 -0.49278,0.66417 -0.28254,0.20369 -0.46417,0.55786 -0.40364,0.78706 0.0633,0.23887 -0.0759,0.46583 -0.32563,0.53181 -0.23958,0.0634 -0.48857,0.30003 -0.55322,0.52608 -0.0645,0.22607 -0.25775,0.52969 -0.42916,0.67472 -1.97612,1.67192 -2.48568,2.25578 -3.39654,3.89182 -0.16375,0.29415 -0.42492,0.66262 -0.58037,0.81884 -0.15546,0.15621 -0.41843,0.56979 -0.58438,0.91904 -0.16594,0.34925 -0.43788,0.64468 -0.60432,0.65653 -0.16642,0.0119 -0.42232,0.33383 -0.56867,0.71549 -0.14635,0.38168 -0.91847,1.24782 -1.71583,1.92476 -0.79735,0.67694 -1.91715,1.71062 -2.48845,2.29709 -0.5713,0.58647 -1.1735,1.07591 -1.33823,1.08763 -0.16472,0.0117 -0.43142,0.43375 -0.59263,0.93782 -0.16992,0.53131 -0.41409,0.86642 -0.58093,0.79735 -0.31824,-0.13179 -0.56367,0.0902 -1.72175,1.55675 -0.43275,0.54804 -1.16567,1.30608 -1.62868,1.68453 -0.46304,0.37846 -1.31285,1.18311 -1.88851,1.78814 -0.57562,0.60501 -1.24044,1.24873 -1.47736,1.43044 -0.2369,0.18175 -0.81423,0.73838 -1.28294,1.237 -0.46868,0.4986 -1.21561,1.13215 -1.65986,1.40789 -0.44422,0.27573 -0.84818,0.65767 -0.89769,0.84875 -0.13924,0.53757 -1.7786,1.87026 -3.01857,2.45389 -0.7224,0.34003 -1.37169,0.84689 -1.83538,1.43279 -0.75738,0.95699 -1.6708,1.59452 -2.24725,1.56852 -0.19015,-0.008 -0.90712,0.4584 -1.59325,1.03775 -0.68615,0.57932 -1.67936,1.39949 -2.20715,1.82258 -0.5278,0.4231 -1.02615,0.92992 -1.10746,1.12626 -0.0813,0.19635 -0.67235,0.72796 -1.31343,1.18137 -0.6411,0.45337 -1.47433,1.13425 -1.85164,1.51297 -0.37735,0.37872 -1.29839,0.98018 -2.0468,1.33654 -0.90562,0.43125 -1.3967,0.78572 -1.46823,1.05985 -0.0592,0.22653 -0.44543,0.55811 -0.85849,0.73686 -0.41305,0.17874 -0.74259,0.44305 -0.73233,0.58735 0.0103,0.14431 -0.47487,0.58734 -1.07809,0.98457 -2.70129,1.77877 -4.54235,3.1186 -4.65326,3.38644 -0.0662,0.1599 -0.22202,0.24866 -0.34621,0.19722 -0.28566,-0.11832 -3.26116,2.08017 -3.92078,2.89692 -0.37818,0.46827 -0.62983,0.56905 -1.06611,0.42699 -0.54788,-0.17841 -0.56848,-0.16332 -0.50697,0.37188 0.0356,0.30995 -0.0982,0.56939 -0.30113,0.58385 -0.20089,0.0141 -0.37573,-0.12159 -0.38859,-0.30194 -0.0137,-0.19507 -0.14176,-0.0857 -0.31567,0.26996 -0.16078,0.32884 -0.76282,0.92825 -1.33786,1.33202 -1.19746,0.84082 -0.9571,0.66745 -4.11709,2.96899 -1.32688,0.96645 -2.80916,2.04214 -3.29395,2.39039 -0.48488,0.34814 -0.8464,0.75181 -0.80358,0.89683 0.0428,0.14497 -0.0293,0.27125 -0.16036,0.28057 -0.39351,0.0277 -1.88673,0.76432 -2.98098,1.46992 -0.56514,0.36441 -1.04318,0.64084 -1.06232,0.61428 -0.0288,-0.0398 -1.28459,0.70176 -3.167262,1.87017 -0.190641,0.11834 -0.496634,0.21584 -0.679953,0.21676 -0.183344,8.4e-4 -0.893769,0.42472 -1.578756,0.94185 -0.684991,0.51714 -1.289002,0.8798 -1.342251,0.80595 -0.128091,-0.17768 -0.09012,-0.20118 -4.624395,2.86473 -2.164353,1.46345 -4.240134,2.8642 -4.612847,3.11274 -0.372715,0.24855 -1.090489,0.81879 -1.595026,1.26725 -0.504558,0.44845 -1.480678,1.0779 -2.169194,1.39875 -1.440177,0.67117 -1.535334,0.73413 -2.123602,1.40504 -0.239999,0.27372 -0.657164,0.53019 -0.927034,0.56995 -0.269884,0.0398 -0.635152,0.28943 -0.811751,0.55484 -0.176581,0.26543 -0.516187,0.4729 -0.754677,0.46107 -0.293653,-0.0146 -0.377722,0.056 -0.26048,0.21865 0.09517,0.13208 -0.01496,0.28982 -0.244837,0.35052 -0.229979,0.0603 -0.639715,0.42713 -0.910732,0.81431 -0.314421,0.44916 -0.595853,0.66122 -0.777593,0.58596 -0.156654,-0.0648 -0.599166,0.10884 -0.983318,0.38616 -0.384166,0.27725 -1.314971,0.90166 -2.06848,1.38754 -0.753499,0.48591 -1.692394,1.29631 -2.086434,1.80095 -0.480933,0.61589 -0.894098,0.9379 -1.256892,0.97959 -0.329622,0.0378 -0.5372,0.18085 -0.532122,0.36639 0.0167,0.60908 -4.85126,4.18449 -5.625351,4.13168 -0.272308,-0.0185 -0.426897,0.0609 -0.343495,0.17662 0.190918,0.26483 -0.114081,0.55053 -2.345964,2.19748 -0.990676,0.73107 -1.758984,1.3878 -1.707315,1.45945 0.126237,0.17506 -1.192008,1.05554 -1.504472,1.00486 -0.135902,-0.0221 -0.304499,0.18153 -0.374653,0.45243 -0.07018,0.27087 -0.274489,0.63303 -0.454051,0.80476 -1.755105,1.67866 -2.114578,2.08414 -2.702338,3.04827 -0.334411,0.54854 -0.672797,0.81363 -1.241217,0.97231 -0.615619,0.17186 -0.758872,0.30369 -0.675012,0.6212 0.05855,0.22169 -0.02327,0.49658 -0.181808,0.61087 -0.158528,0.11435 -0.244777,0.34694 -0.19163,0.517 0.0588,0.18797 -0.13879,0.38652 -0.50387,0.50641 -0.363921,0.11945 -0.612832,0.0512 -0.631902,-0.17418 -0.01799,-0.21283 -0.09689,-0.12951 -0.185076,0.19539 -0.08451,0.31173 -0.05817,0.60632 0.05853,0.65465 0.116694,0.0484 0.09962,0.18341 -0.03809,0.30026 -1.075008,0.91238 -1.712687,1.60097 -1.970058,2.12732 -0.165875,0.33924 -0.342325,0.56033 -0.392094,0.49128 -0.04981,-0.069 -0.223956,0.14734 -0.387042,0.48092 -0.163097,0.33355 -0.577459,0.84767 -0.920798,1.14249 -0.343335,0.29483 -0.581871,0.67165 -0.530076,0.83741 0.05178,0.16577 -0.133046,0.46521 -0.410766,0.6654 -0.277723,0.20023 -0.521896,0.61247 -0.542615,0.91615 -0.02071,0.30367 -0.250476,0.63438 -0.510603,0.73493 -0.26011,0.10055 -0.576692,0.54406 -0.703507,0.98561 -0.126804,0.44155 -0.405986,0.92929 -0.620409,1.08387 -0.543222,0.3916 -1.496356,1.82784 -1.348821,2.0325 0.06697,0.0929 -0.05718,0.21624 -0.275965,0.27401 -0.383555,0.10118 -1.606879,3.05332 -1.556822,3.75676 0.0318,0.44608 -0.693838,1.15757 -1.036011,1.01588 z M 198.44621,135.89904 c -0.32558,-0.45162 -0.0831,-1.079 0.80387,-2.07981 0.44186,-0.49856 0.79028,-1.20287 0.78505,-1.5869 -0.005,-0.37975 0.13356,-0.79353 0.30827,-0.91949 0.17474,-0.12593 0.24626,-0.32804 0.159,-0.4491 -0.0872,-0.12106 -0.0218,-0.31847 0.14453,-0.43866 0.16676,-0.12025 0.31927,-0.45428 0.33892,-0.74236 0.0196,-0.28809 0.16266,-0.53284 0.31783,-0.54388 0.15518,-0.011 0.20229,-0.13077 0.10471,-0.26615 -0.0976,-0.13533 -0.0343,-0.25627 0.14077,-0.26872 0.17498,-0.0124 0.25122,-0.1155 0.16939,-0.22901 -0.0818,-0.11353 0.0612,-0.54632 0.31799,-0.96182 0.25673,-0.41548 0.44594,-0.93676 0.42046,-1.15841 -0.0257,-0.22164 0.16755,-0.62752 0.42896,-0.90192 0.95311,-1.00057 1.45951,-1.68542 1.35425,-1.83144 -0.10038,-0.13923 0.28137,-0.57002 1.15275,-1.30081 0.20062,-0.16825 0.2748,-0.43074 0.16485,-0.58327 -0.18377,-0.25491 0.40214,-1.7492 0.79415,-2.02534 0.23854,-0.16819 0.82005,-0.90681 1.18025,-1.49951 1.37836,-2.26802 2.25226,-4.01502 2.39373,-4.78523 0.0923,-0.50236 0.38553,-1.34824 0.65174,-1.87975 0.62801,-1.25387 1.40197,-3.31571 1.40016,-3.73008 -5.2e-4,-0.17861 0.11222,-0.30629 0.25111,-0.28376 0.13889,0.0225 0.35278,-0.47508 0.47533,-1.10579 0.12251,-0.6307 0.35577,-1.32764 0.51832,-1.54873 0.16257,-0.22107 0.20327,-0.53001 0.0905,-0.6865 -0.26168,-0.36298 0.0675,-2.91595 0.40756,-3.16112 0.14113,-0.1017 0.3193,-0.67715 0.39597,-1.278674 0.13685,-1.074095 0.15176,-1.091052 0.83078,-0.945863 0.73523,0.157166 1.1095,0.874806 0.63475,1.217054 -0.15665,0.112993 -0.2256,0.501283 -0.15317,0.863003 0.0729,0.36159 0.001,0.71718 -0.15842,0.78995 -0.15953,0.0727 -0.21097,0.37324 -0.11428,0.66772 0.0968,0.29447 0.0336,0.63773 -0.13946,0.76271 -0.17346,0.12497 -0.24392,0.32636 -0.15667,0.44741 0.0872,0.12107 0.0199,0.3205 -0.15086,0.44325 -0.19363,0.1396 -0.15866,0.34778 0.0935,0.55599 0.26719,0.22071 0.30811,0.64392 0.1215,1.25589 -0.15482,0.50765 -0.38306,1.25713 -0.50719,1.66552 -0.12411,0.40836 -0.27544,0.96651 -0.33626,1.24031 -0.0608,0.2738 -0.24433,0.59425 -0.40785,0.71212 -0.16347,0.11791 -0.29581,0.52341 -0.29403,0.90119 0.003,0.58935 -0.52306,2.02331 -1.60044,4.36442 -0.1469,0.31922 -0.26731,0.7085 -0.26758,0.86505 -6.5e-4,0.45407 -1.78763,3.56813 -2.12946,3.71106 -0.10603,0.0443 -0.12134,0.17963 -0.034,0.30067 0.0872,0.12106 -0.0838,0.39492 -0.38024,0.60858 -0.29639,0.21367 -0.62661,0.82392 -0.73379,1.35609 -0.15043,0.74684 -0.32176,0.9846 -0.75085,1.0421 -0.31519,0.0422 -0.54727,0.19615 -0.53596,0.35532 0.025,0.35291 -1.63876,2.65587 -1.88947,2.61522 -0.10195,-0.0165 -0.26447,0.43087 -0.36128,0.99416 -0.34627,2.01491 -0.50315,2.34446 -1.57715,3.31269 -0.30244,0.27264 -0.5133,0.58487 -0.46859,0.69381 0.16343,0.39832 -0.38825,2.10666 -0.97441,3.01738 -0.4985,0.77451 -0.67985,0.9151 -1.05499,0.81794 -0.37563,-0.0973 -0.54253,0.0284 -0.97721,0.73691 -0.65616,1.06925 -0.92004,1.26293 -1.19711,0.87857 z M 76.846899,197.99487 c -0.153518,-0.0636 -0.676338,0.24485 -1.161841,0.68537 -0.68494,0.62147 -0.9698,0.74393 -1.271217,0.54655 -0.244078,-0.15983 -0.289852,-0.45609 -0.123121,-0.79702 0.145931,-0.29843 0.312279,-0.47749 0.369669,-0.39789 0.05737,0.0796 0.163402,-0.0834 0.235633,-0.36211 0.135859,-0.5245 1.568644,-1.89376 2.77555,-2.65251 0.939659,-0.59072 2.522524,-1.8023 4.526406,-3.46463 2.214603,-1.83714 2.377672,-1.95352 3.552108,-2.53492 1.027408,-0.50862 1.562081,-0.2817 1.521869,0.64587 -0.02096,0.48342 -1.209536,1.44995 -1.421496,1.15593 -0.07486,-0.10381 -0.520358,0.16555 -0.990012,0.59859 -0.469647,0.43307 -1.308175,1.12907 -1.863403,1.54664 -0.555208,0.4176 -0.8907,0.80843 -0.745501,0.86856 0.146974,0.0608 -0.03321,0.2276 -0.406526,0.37614 -0.368784,0.14677 -0.852712,0.54316 -1.075381,0.88093 -0.222672,0.33776 -0.513479,0.56911 -0.646234,0.51415 -0.279228,-0.11563 -2.36973,1.47758 -2.744508,2.09164 -0.139076,0.22786 -0.378453,0.36227 -0.531965,0.29871 z M 215.63915,97.777963 c -0.0738,-0.276655 -0.0388,-0.487537 0.0778,-0.468607 0.11662,0.01895 0.17703,0.245268 0.13426,0.502968 -0.0619,0.372468 -0.10536,0.365433 -0.21206,-0.03447 z M 101.80131,179.54149 c -0.30644,0.0848 -0.65727,0.3073 -0.77968,0.4942 -0.12239,0.18692 -0.37063,0.27848 -0.55161,0.2036 -0.24168,-0.10008 -0.3612,-0.0123 -0.44997,0.33037 -0.06654,0.25666 -0.270317,0.47729 -0.452979,0.49029 -0.610936,0.0429 -0.600998,-0.33574 0.02586,-0.98784 1.486664,-1.54667 2.171724,-2.13841 4.906344,-4.23806 1.59238,-1.22264 3.61868,-2.84441 4.50287,-3.60397 1.94049,-1.66689 2.65622,-1.9916 3.13541,-1.42244 0.30386,0.36085 0.25267,0.46567 -0.34231,0.70111 -0.38476,0.15228 -0.9323,0.47596 -1.21675,0.71933 -1.37562,1.17703 -1.78506,1.57468 -1.89517,1.84055 -0.33915,0.81904 -5.82183,5.17914 -6.88194,5.47289 z m 12.73142,-11.11555 c -0.24875,0.0172 -0.49595,0.13781 -0.54938,0.26675 -0.0535,0.12903 -0.42867,0.23908 -0.83387,0.24463 -0.40521,0.006 -0.69913,-0.0364 -0.65315,-0.0932 0.39308,-0.48547 2.75518,-2.12746 3.14566,-2.18666 0.31976,-0.0484 0.50752,-0.244 0.52839,-0.55031 0.0212,-0.30904 0.52066,-0.82464 1.42939,-1.47525 0.79547,-0.56968 1.57555,-1.34038 1.81184,-1.79044 0.49852,-0.9496 0.96746,-1.14502 1.37869,-0.57457 0.18708,0.25949 0.1517,0.53176 -0.0921,0.70744 -0.21791,0.15711 -0.42648,0.44194 -0.46349,0.63302 -0.14252,0.73557 -4.9072,4.76208 -5.70202,4.81866 z m 44.7219,-38.17435 c -1.8747,1.04284 -1.96615,0.0203 -0.11812,-1.32064 1.40841,-1.02193 1.56619,-1.20874 2.07678,-2.45802 0.23295,-0.57 0.53816,-1.13837 0.67824,-1.26304 0.1401,-0.12467 0.33589,-0.32282 0.43512,-0.44036 0.0993,-0.11752 0.313,-0.32807 0.47504,-0.46788 0.16201,-0.13981 0.33595,-0.47267 0.38654,-0.73971 0.0506,-0.26706 0.46596,-1.1151 0.92304,-1.88455 0.45711,-0.76946 1.38174,-2.40986 2.05478,-3.64535 1.25651,-2.30661 1.29887,-2.37261 1.8003,-2.80528 0.16202,-0.13981 0.33596,-0.47267 0.38655,-0.73972 0.11492,-0.60681 1.45432,-2.91899 1.98519,-3.42702 0.21772,-0.20836 0.46377,-0.69488 0.54677,-1.08116 0.0829,-0.38627 0.30415,-0.74279 0.49144,-0.79227 0.18723,-0.0499 0.35611,-0.31798 0.37512,-0.59669 0.019,-0.27872 0.14757,-0.58821 0.28567,-0.68779 0.13811,-0.0996 0.51597,-0.89875 0.83965,-1.77599 0.32371,-0.87722 0.79055,-1.74057 1.03744,-1.91854 0.24688,-0.17799 0.37745,-0.42264 0.2902,-0.5437 -0.0872,-0.12106 -0.0333,-0.31041 0.11971,-0.42078 0.1531,-0.11042 0.51544,-0.68623 0.80516,-1.27968 0.28974,-0.59346 0.8343,-1.34726 1.21015,-1.67508 0.37583,-0.327846 1.12871,-1.459702 1.67305,-2.515223 0.54433,-1.055527 1.1144,-1.928014 1.2668,-1.938871 0.15239,-0.01086 0.7354,-0.884847 1.29557,-1.942227 0.56016,-1.057389 1.09953,-1.909385 1.1986,-1.893304 0.0992,0.0161 0.33076,-0.414648 0.51485,-0.957152 0.28557,-0.841573 0.61785,-1.189458 2.26336,-2.369773 1.06078,-0.760852 1.86341,-1.474355 1.78369,-1.585508 -0.0798,-0.111135 -0.0331,-0.183856 0.10426,-0.161683 0.13707,0.02223 0.30263,-0.165698 0.36787,-0.41765 0.0652,-0.251952 0.16561,-0.39295 0.22301,-0.313333 0.0574,0.07959 0.22617,-0.104353 0.37505,-0.40889 0.21249,-0.434583 0.42174,-0.534019 0.97306,-0.4624 1.24649,0.16192 1.55178,0.742189 0.82056,1.5597 -0.60839,0.680188 -3.28688,3.041224 -4.14146,3.650622 -0.21264,0.151617 -0.31963,0.368566 -0.23779,0.482105 0.0818,0.113532 -0.0493,0.34921 -0.29139,0.523752 -0.24211,0.17453 -0.36879,0.416381 -0.28152,0.53743 0.0872,0.121067 0.073,0.257913 -0.0316,0.304151 -0.18887,0.08348 -0.47689,0.47442 -1.22559,1.663733 -0.21441,0.340555 -0.44245,0.650584 -0.50678,0.688921 -0.0643,0.03838 -0.23879,0.387401 -0.38766,0.775673 -0.14889,0.388273 -0.42515,0.746738 -0.61393,0.7966 -0.18872,0.05018 -0.57239,0.492613 -0.85246,0.983902 -1.06805,1.873495 -2.16765,3.227545 -2.68117,3.301615 -0.66009,0.0954 -0.85563,0.24274 -0.51095,0.38549 0.42033,0.17405 0.0618,0.77312 -0.41649,0.69559 -0.63329,-0.10271 -0.9047,0.20457 -0.31558,0.35697 0.38154,0.0988 0.44574,0.18039 0.25194,0.32009 -0.14298,0.10323 -0.13128,0.24077 0.026,0.30591 0.15732,0.0652 0.0573,0.38382 -0.22236,0.70814 -0.27961,0.32432 -0.56286,0.78015 -0.62945,1.01295 -0.0666,0.2328 -0.22243,0.40683 -0.34634,0.38673 -0.12393,-0.0201 -0.26547,0.21102 -0.31454,0.51358 -0.0789,0.48621 -0.61536,1.10135 -1.21478,1.39285 -0.11229,0.0546 -0.0721,0.15394 0.0893,0.22074 0.16135,0.0667 0.0651,0.38763 -0.21378,0.7129 -0.27893,0.32528 -0.64192,0.97718 -0.80667,1.44868 -0.16475,0.4715 -0.42867,0.86645 -0.58653,0.8777 -0.15783,0.0113 -0.23708,0.20935 -0.17609,0.44027 0.0605,0.23102 -0.0821,0.55894 -0.31787,0.72894 -0.23581,0.17 -0.39001,0.43317 -0.34262,0.5848 0.0474,0.15163 -0.0826,0.45847 -0.2889,0.68185 -0.59799,0.6476 -2.07566,3.38285 -1.93383,3.57959 0.0709,0.0985 -0.14645,0.47543 -0.48312,0.83777 -0.33668,0.36231 -0.84042,0.90942 -1.11941,1.21576 -0.279,0.30636 -0.43835,0.76691 -0.35411,1.02345 0.0842,0.25655 0.0379,0.5652 -0.10195,0.6858 -0.70596,0.60699 -1.58536,1.6486 -1.57607,1.86681 0.006,0.1356 -0.18164,0.34456 -0.41651,0.46433 -0.23485,0.11977 -0.41775,0.34818 -0.4064,0.50758 0.0114,0.15939 -0.27066,0.49979 -0.62666,0.75645 -0.41621,0.30005 -0.56585,0.57961 -0.41917,0.78311 0.12543,0.17405 0.0468,0.43022 -0.17494,0.56928 -0.22167,0.13909 -0.86183,0.92047 -1.42252,1.73652 -0.56069,0.81604 -1.20596,1.59125 -1.43393,1.7227 -0.76438,0.4408 -0.9297,0.68427 -0.69017,1.01652 0.13094,0.18157 0.10268,0.40355 -0.0625,0.49326 -0.16528,0.0896 -0.67652,0.37228 -1.13609,0.62793 z m 35.55729,-30.01612 c -0.0728,-0.10104 -0.0283,-0.653165 0.099,-1.226959 0.22061,-0.994239 1.31679,-2.614567 2.74874,-4.063125 0.36341,-0.367612 0.70273,-0.769826 0.75407,-0.893829 0.17073,-0.412243 0.60582,-0.02176 0.58848,0.528081 -0.0153,0.48486 -1.46869,2.500463 -2.56432,3.556138 -0.22939,0.22104 -0.53277,0.734026 -0.67416,1.13994 -0.2763,0.793304 -0.737,1.257804 -0.95185,0.959754 z m 29.67454,-24.876113 c -0.91413,-0.371441 -0.98623,-2.258995 -0.20415,-5.34465 0.12374,-0.488209 0.32002,-0.872233 0.4362,-0.853398 0.1161,0.0188 0.12217,-0.298718 0.0133,-0.705689 -0.10892,-0.406952 -0.0955,-0.813752 0.0297,-0.903983 0.12513,-0.09028 0.32361,-0.681858 0.44104,-1.314763 0.11742,-0.63289 0.32178,-1.15842 0.45414,-1.167845 0.13236,-0.0094 0.15589,-0.376013 0.0523,-0.814665 -0.10337,-0.438706 -0.133,-1.2447 -0.0654,-1.791216 0.10037,-0.811544 0.23199,-1.008313 0.71802,-1.073448 0.32732,-0.04386 0.66467,0.01671 0.74964,0.13461 0.21993,0.305076 -0.10503,2.402259 -0.40584,2.619109 -0.13819,0.09962 -0.19273,0.262364 -0.1212,0.361606 0.17723,0.245837 -0.0666,2.44963 -0.28876,2.60978 -0.0981,0.0707 -0.24967,0.744428 -0.33697,1.49722 -0.20958,1.806956 -0.21959,1.874832 -0.52867,3.585163 -0.14637,0.809963 -0.20041,1.563854 -0.12005,1.675327 0.0803,0.111463 0.047,0.274061 -0.0739,0.361318 -0.12107,0.08722 -0.11301,0.307236 0.018,0.488807 0.28818,0.399739 -0.25043,0.846709 -0.76719,0.636704 z"
       id="path4628"
       inkscape:connector-curvature="0" />
  </g>
</svg>
